%TF.GenerationSoftware,KiCad,Pcbnew,8.0.7*%
%TF.CreationDate,2025-01-26T19:21:23+01:00*%
%TF.ProjectId,Power device,506f7765-7220-4646-9576-6963652e6b69,rev?*%
%TF.SameCoordinates,Original*%
%TF.FileFunction,Copper,L2,Bot*%
%TF.FilePolarity,Positive*%
%FSLAX46Y46*%
G04 Gerber Fmt 4.6, Leading zero omitted, Abs format (unit mm)*
G04 Created by KiCad (PCBNEW 8.0.7) date 2025-01-26 19:21:23*
%MOMM*%
%LPD*%
G01*
G04 APERTURE LIST*
%TA.AperFunction,ComponentPad*%
%ADD10R,3.000000X3.000000*%
%TD*%
%TA.AperFunction,ComponentPad*%
%ADD11C,3.000000*%
%TD*%
%TA.AperFunction,ComponentPad*%
%ADD12R,1.800000X1.800000*%
%TD*%
%TA.AperFunction,ComponentPad*%
%ADD13C,1.800000*%
%TD*%
%TA.AperFunction,ViaPad*%
%ADD14C,0.600000*%
%TD*%
%TA.AperFunction,Conductor*%
%ADD15C,0.200000*%
%TD*%
%TA.AperFunction,Conductor*%
%ADD16C,0.500000*%
%TD*%
G04 APERTURE END LIST*
D10*
%TO.P,L2,1,1*%
%TO.N,Net-(D3-A)*%
X170000000Y-71690000D03*
D11*
%TO.P,L2,2,2*%
%TO.N,Net-(Cp2-Pad1)*%
X175000000Y-71690000D03*
%TD*%
D12*
%TO.P,J1,1,1*%
%TO.N,GND*%
X55450000Y-55000000D03*
D13*
%TO.P,J1,2,2*%
%TO.N,/Supply*%
X55450000Y-60000000D03*
%TD*%
D10*
%TO.P,L1,1,1*%
%TO.N,Net-(Cp1-Pad2)*%
X107000000Y-73190000D03*
D11*
%TO.P,L1,2,2*%
%TO.N,GND*%
X112000000Y-73190000D03*
%TD*%
D14*
%TO.N,/Safety*%
X87750000Y-112000000D03*
%TO.N,GND*%
X188500000Y-90250000D03*
%TO.N,Net-(D1-K)*%
X189250000Y-92250000D03*
%TO.N,/Supply*%
X60500000Y-67000000D03*
%TO.N,Net-(Q1-GATE)*%
X108500000Y-110000000D03*
%TD*%
D15*
%TO.N,/Safety*%
X87750000Y-112000000D02*
X87750000Y-105250000D01*
X88500000Y-104500000D02*
X93000000Y-104500000D01*
X87750000Y-105250000D02*
X88500000Y-104500000D01*
%TO.N,GND*%
X188500000Y-90250000D02*
X187000000Y-91750000D01*
X187000000Y-91750000D02*
X130560000Y-91750000D01*
X130560000Y-91750000D02*
X112000000Y-73190000D01*
%TO.N,Net-(D1-K)*%
X189250000Y-92250000D02*
X189750000Y-92750000D01*
X189750000Y-92750000D02*
X203500000Y-92750000D01*
X203500000Y-92750000D02*
X204000000Y-92250000D01*
%TO.N,/Supply*%
X93500000Y-105500000D02*
X93000000Y-105500000D01*
X94750000Y-105500000D02*
X93500000Y-105500000D01*
X95250000Y-105000000D02*
X94750000Y-105500000D01*
X95250000Y-101750000D02*
X95250000Y-105000000D01*
D16*
X60500000Y-67000000D02*
X95250000Y-101750000D01*
D15*
%TO.N,Net-(Q1-GATE)*%
X108500000Y-110000000D02*
X108500000Y-106750000D01*
X109500000Y-105750000D02*
X113750000Y-105750000D01*
X108500000Y-106750000D02*
X109500000Y-105750000D01*
X113750000Y-105750000D02*
X119750000Y-105750000D01*
X113750000Y-105750000D02*
X114000000Y-105750000D01*
%TD*%
M02*
