%TF.GenerationSoftware,KiCad,Pcbnew,8.0.7*%
%TF.CreationDate,2025-01-26T19:21:23+01:00*%
%TF.ProjectId,Power device,506f7765-7220-4646-9576-6963652e6b69,rev?*%
%TF.SameCoordinates,Original*%
%TF.FileFunction,Paste,Top*%
%TF.FilePolarity,Positive*%
%FSLAX46Y46*%
G04 Gerber Fmt 4.6, Leading zero omitted, Abs format (unit mm)*
G04 Created by KiCad (PCBNEW 8.0.7) date 2025-01-26 19:21:23*
%MOMM*%
%LPD*%
G01*
G04 APERTURE LIST*
G04 Aperture macros list*
%AMRoundRect*
0 Rectangle with rounded corners*
0 $1 Rounding radius*
0 $2 $3 $4 $5 $6 $7 $8 $9 X,Y pos of 4 corners*
0 Add a 4 corners polygon primitive as box body*
4,1,4,$2,$3,$4,$5,$6,$7,$8,$9,$2,$3,0*
0 Add four circle primitives for the rounded corners*
1,1,$1+$1,$2,$3*
1,1,$1+$1,$4,$5*
1,1,$1+$1,$6,$7*
1,1,$1+$1,$8,$9*
0 Add four rect primitives between the rounded corners*
20,1,$1+$1,$2,$3,$4,$5,0*
20,1,$1+$1,$4,$5,$6,$7,0*
20,1,$1+$1,$6,$7,$8,$9,0*
20,1,$1+$1,$8,$9,$2,$3,0*%
G04 Aperture macros list end*
%ADD10R,0.950000X3.200000*%
%ADD11R,3.520000X1.430000*%
%ADD12RoundRect,0.067500X0.067500X-0.137500X0.067500X0.137500X-0.067500X0.137500X-0.067500X-0.137500X0*%
%ADD13RoundRect,0.079500X0.079500X0.100500X-0.079500X0.100500X-0.079500X-0.100500X0.079500X-0.100500X0*%
%ADD14RoundRect,0.237500X0.237500X-0.300000X0.237500X0.300000X-0.237500X0.300000X-0.237500X-0.300000X0*%
%ADD15RoundRect,0.250000X0.350000X-0.850000X0.350000X0.850000X-0.350000X0.850000X-0.350000X-0.850000X0*%
%ADD16RoundRect,0.250000X1.125000X-1.275000X1.125000X1.275000X-1.125000X1.275000X-1.125000X-1.275000X0*%
%ADD17RoundRect,0.140000X0.170000X-0.140000X0.170000X0.140000X-0.170000X0.140000X-0.170000X-0.140000X0*%
%ADD18RoundRect,0.073750X-0.911250X-0.221250X0.911250X-0.221250X0.911250X0.221250X-0.911250X0.221250X0*%
%ADD19RoundRect,0.237500X-0.300000X-0.237500X0.300000X-0.237500X0.300000X0.237500X-0.300000X0.237500X0*%
%ADD20R,0.650000X0.640000*%
%ADD21RoundRect,0.067500X-0.067500X0.137500X-0.067500X-0.137500X0.067500X-0.137500X0.067500X0.137500X0*%
%ADD22RoundRect,0.237500X0.300000X0.237500X-0.300000X0.237500X-0.300000X-0.237500X0.300000X-0.237500X0*%
%ADD23R,3.200000X0.950000*%
%ADD24R,0.840000X3.620000*%
%ADD25R,0.300000X0.500000*%
%ADD26R,1.000000X1.200000*%
%ADD27R,0.300000X1.000000*%
G04 APERTURE END LIST*
D10*
%TO.C,Rp2*%
X179175000Y-85250000D03*
X180825000Y-85250000D03*
%TD*%
%TO.C,Rload1*%
X235150000Y-91750000D03*
X233500000Y-91750000D03*
%TD*%
D11*
%TO.C,Cd1*%
X62440000Y-106940000D03*
X62440000Y-103060000D03*
%TD*%
D10*
%TO.C,Rp1*%
X67675000Y-75000000D03*
X69325000Y-75000000D03*
%TD*%
D12*
%TO.C,D4*%
X192250000Y-94500000D03*
X192250000Y-93775000D03*
%TD*%
D10*
%TO.C,Rpow-MOS1*%
X123000000Y-98750000D03*
X121350000Y-98750000D03*
%TD*%
D13*
%TO.C,C_decop_3*%
X122595000Y-103000000D03*
X121905000Y-103000000D03*
%TD*%
D14*
%TO.C,C_out1*%
X225500000Y-92725000D03*
X225500000Y-91000000D03*
%TD*%
D13*
%TO.C,C_decop_4*%
X80595000Y-110250000D03*
X79905000Y-110250000D03*
%TD*%
D10*
%TO.C,Rpow_MOS1*%
X114000000Y-110750000D03*
X115650000Y-110750000D03*
%TD*%
%TO.C,Rgate1*%
X103600000Y-110000000D03*
X105250000Y-110000000D03*
%TD*%
D15*
%TO.C,U1*%
X211220000Y-84550000D03*
D16*
X211975000Y-79925000D03*
X215025000Y-79925000D03*
X211975000Y-76575000D03*
X215025000Y-76575000D03*
D15*
X215780000Y-84550000D03*
%TD*%
D10*
%TO.C,Rpow1*%
X104500000Y-99000000D03*
X102850000Y-99000000D03*
%TD*%
D17*
%TO.C,C_rect1*%
X204000000Y-92210000D03*
X204000000Y-91250000D03*
%TD*%
D18*
%TO.C,IC1*%
X93025000Y-103095000D03*
X93025000Y-104365000D03*
X93025000Y-105635000D03*
X93025000Y-106905000D03*
X97975000Y-106905000D03*
X97975000Y-105635000D03*
X97975000Y-104365000D03*
X97975000Y-103095000D03*
%TD*%
D19*
%TO.C,C_decop_2*%
X113887500Y-115250000D03*
X115612500Y-115250000D03*
%TD*%
D12*
%TO.C,D1*%
X185587500Y-89362500D03*
X185587500Y-88637500D03*
%TD*%
D20*
%TO.C,Cp2*%
X179600000Y-81500000D03*
X180500000Y-81500000D03*
%TD*%
D21*
%TO.C,D3*%
X185500000Y-93775000D03*
X185500000Y-94500000D03*
%TD*%
D22*
%TO.C,C_decop_1*%
X104725000Y-95250000D03*
X103000000Y-95250000D03*
%TD*%
D21*
%TO.C,D2*%
X192087500Y-88637500D03*
X192087500Y-89362500D03*
%TD*%
D10*
%TO.C,R1*%
X71500000Y-105250000D03*
X73150000Y-105250000D03*
%TD*%
D23*
%TO.C,R1s1*%
X55000000Y-67175000D03*
X55000000Y-68825000D03*
%TD*%
D24*
%TO.C,Cp1*%
X66210000Y-68000000D03*
X70790000Y-68000000D03*
%TD*%
D10*
%TO.C,Rpov-1*%
X81000000Y-105500000D03*
X79350000Y-105500000D03*
%TD*%
D25*
%TO.C,Q1*%
X118450000Y-105750000D03*
X119100000Y-105750000D03*
X119750000Y-105750000D03*
X119750000Y-103750000D03*
X119100000Y-103750000D03*
X118450000Y-103750000D03*
D26*
X118800000Y-104750000D03*
D27*
X119835000Y-104675000D03*
%TD*%
M02*
