%TF.GenerationSoftware,KiCad,Pcbnew,8.0.7*%
%TF.CreationDate,2025-01-26T19:21:23+01:00*%
%TF.ProjectId,Power device,506f7765-7220-4646-9576-6963652e6b69,rev?*%
%TF.SameCoordinates,Original*%
%TF.FileFunction,Legend,Top*%
%TF.FilePolarity,Positive*%
%FSLAX46Y46*%
G04 Gerber Fmt 4.6, Leading zero omitted, Abs format (unit mm)*
G04 Created by KiCad (PCBNEW 8.0.7) date 2025-01-26 19:21:23*
%MOMM*%
%LPD*%
G01*
G04 APERTURE LIST*
%ADD10C,0.254000*%
%ADD11C,0.150000*%
%ADD12C,0.200000*%
%ADD13C,0.100000*%
%ADD14C,0.120000*%
%ADD15C,0.127000*%
G04 APERTURE END LIST*
D10*
X179213809Y-85824318D02*
X178790475Y-85219556D01*
X178488094Y-85824318D02*
X178488094Y-84554318D01*
X178488094Y-84554318D02*
X178971904Y-84554318D01*
X178971904Y-84554318D02*
X179092856Y-84614794D01*
X179092856Y-84614794D02*
X179153333Y-84675270D01*
X179153333Y-84675270D02*
X179213809Y-84796222D01*
X179213809Y-84796222D02*
X179213809Y-84977651D01*
X179213809Y-84977651D02*
X179153333Y-85098603D01*
X179153333Y-85098603D02*
X179092856Y-85159080D01*
X179092856Y-85159080D02*
X178971904Y-85219556D01*
X178971904Y-85219556D02*
X178488094Y-85219556D01*
X179758094Y-84977651D02*
X179758094Y-86247651D01*
X179758094Y-85038127D02*
X179879047Y-84977651D01*
X179879047Y-84977651D02*
X180120952Y-84977651D01*
X180120952Y-84977651D02*
X180241904Y-85038127D01*
X180241904Y-85038127D02*
X180302380Y-85098603D01*
X180302380Y-85098603D02*
X180362856Y-85219556D01*
X180362856Y-85219556D02*
X180362856Y-85582413D01*
X180362856Y-85582413D02*
X180302380Y-85703365D01*
X180302380Y-85703365D02*
X180241904Y-85763842D01*
X180241904Y-85763842D02*
X180120952Y-85824318D01*
X180120952Y-85824318D02*
X179879047Y-85824318D01*
X179879047Y-85824318D02*
X179758094Y-85763842D01*
X180846666Y-84675270D02*
X180907142Y-84614794D01*
X180907142Y-84614794D02*
X181028095Y-84554318D01*
X181028095Y-84554318D02*
X181330476Y-84554318D01*
X181330476Y-84554318D02*
X181451428Y-84614794D01*
X181451428Y-84614794D02*
X181511904Y-84675270D01*
X181511904Y-84675270D02*
X181572381Y-84796222D01*
X181572381Y-84796222D02*
X181572381Y-84917175D01*
X181572381Y-84917175D02*
X181511904Y-85098603D01*
X181511904Y-85098603D02*
X180786190Y-85824318D01*
X180786190Y-85824318D02*
X181572381Y-85824318D01*
X232057142Y-92324318D02*
X231633808Y-91719556D01*
X231331427Y-92324318D02*
X231331427Y-91054318D01*
X231331427Y-91054318D02*
X231815237Y-91054318D01*
X231815237Y-91054318D02*
X231936189Y-91114794D01*
X231936189Y-91114794D02*
X231996666Y-91175270D01*
X231996666Y-91175270D02*
X232057142Y-91296222D01*
X232057142Y-91296222D02*
X232057142Y-91477651D01*
X232057142Y-91477651D02*
X231996666Y-91598603D01*
X231996666Y-91598603D02*
X231936189Y-91659080D01*
X231936189Y-91659080D02*
X231815237Y-91719556D01*
X231815237Y-91719556D02*
X231331427Y-91719556D01*
X232782856Y-92324318D02*
X232661904Y-92263842D01*
X232661904Y-92263842D02*
X232601427Y-92142889D01*
X232601427Y-92142889D02*
X232601427Y-91054318D01*
X233448094Y-92324318D02*
X233327142Y-92263842D01*
X233327142Y-92263842D02*
X233266665Y-92203365D01*
X233266665Y-92203365D02*
X233206189Y-92082413D01*
X233206189Y-92082413D02*
X233206189Y-91719556D01*
X233206189Y-91719556D02*
X233266665Y-91598603D01*
X233266665Y-91598603D02*
X233327142Y-91538127D01*
X233327142Y-91538127D02*
X233448094Y-91477651D01*
X233448094Y-91477651D02*
X233629523Y-91477651D01*
X233629523Y-91477651D02*
X233750475Y-91538127D01*
X233750475Y-91538127D02*
X233810951Y-91598603D01*
X233810951Y-91598603D02*
X233871427Y-91719556D01*
X233871427Y-91719556D02*
X233871427Y-92082413D01*
X233871427Y-92082413D02*
X233810951Y-92203365D01*
X233810951Y-92203365D02*
X233750475Y-92263842D01*
X233750475Y-92263842D02*
X233629523Y-92324318D01*
X233629523Y-92324318D02*
X233448094Y-92324318D01*
X234959999Y-92324318D02*
X234959999Y-91659080D01*
X234959999Y-91659080D02*
X234899523Y-91538127D01*
X234899523Y-91538127D02*
X234778571Y-91477651D01*
X234778571Y-91477651D02*
X234536666Y-91477651D01*
X234536666Y-91477651D02*
X234415713Y-91538127D01*
X234959999Y-92263842D02*
X234839047Y-92324318D01*
X234839047Y-92324318D02*
X234536666Y-92324318D01*
X234536666Y-92324318D02*
X234415713Y-92263842D01*
X234415713Y-92263842D02*
X234355237Y-92142889D01*
X234355237Y-92142889D02*
X234355237Y-92021937D01*
X234355237Y-92021937D02*
X234415713Y-91900984D01*
X234415713Y-91900984D02*
X234536666Y-91840508D01*
X234536666Y-91840508D02*
X234839047Y-91840508D01*
X234839047Y-91840508D02*
X234959999Y-91780032D01*
X236109047Y-92324318D02*
X236109047Y-91054318D01*
X236109047Y-92263842D02*
X235988095Y-92324318D01*
X235988095Y-92324318D02*
X235746190Y-92324318D01*
X235746190Y-92324318D02*
X235625238Y-92263842D01*
X235625238Y-92263842D02*
X235564761Y-92203365D01*
X235564761Y-92203365D02*
X235504285Y-92082413D01*
X235504285Y-92082413D02*
X235504285Y-91719556D01*
X235504285Y-91719556D02*
X235564761Y-91598603D01*
X235564761Y-91598603D02*
X235625238Y-91538127D01*
X235625238Y-91538127D02*
X235746190Y-91477651D01*
X235746190Y-91477651D02*
X235988095Y-91477651D01*
X235988095Y-91477651D02*
X236109047Y-91538127D01*
X237379048Y-92324318D02*
X236653333Y-92324318D01*
X237016190Y-92324318D02*
X237016190Y-91054318D01*
X237016190Y-91054318D02*
X236895238Y-91235746D01*
X236895238Y-91235746D02*
X236774286Y-91356699D01*
X236774286Y-91356699D02*
X236653333Y-91417175D01*
X62893365Y-105786190D02*
X62953842Y-105846666D01*
X62953842Y-105846666D02*
X63014318Y-106028095D01*
X63014318Y-106028095D02*
X63014318Y-106149047D01*
X63014318Y-106149047D02*
X62953842Y-106330476D01*
X62953842Y-106330476D02*
X62832889Y-106451428D01*
X62832889Y-106451428D02*
X62711937Y-106511905D01*
X62711937Y-106511905D02*
X62470032Y-106572381D01*
X62470032Y-106572381D02*
X62288603Y-106572381D01*
X62288603Y-106572381D02*
X62046699Y-106511905D01*
X62046699Y-106511905D02*
X61925746Y-106451428D01*
X61925746Y-106451428D02*
X61804794Y-106330476D01*
X61804794Y-106330476D02*
X61744318Y-106149047D01*
X61744318Y-106149047D02*
X61744318Y-106028095D01*
X61744318Y-106028095D02*
X61804794Y-105846666D01*
X61804794Y-105846666D02*
X61865270Y-105786190D01*
X63014318Y-104697619D02*
X61744318Y-104697619D01*
X62953842Y-104697619D02*
X63014318Y-104818571D01*
X63014318Y-104818571D02*
X63014318Y-105060476D01*
X63014318Y-105060476D02*
X62953842Y-105181428D01*
X62953842Y-105181428D02*
X62893365Y-105241905D01*
X62893365Y-105241905D02*
X62772413Y-105302381D01*
X62772413Y-105302381D02*
X62409556Y-105302381D01*
X62409556Y-105302381D02*
X62288603Y-105241905D01*
X62288603Y-105241905D02*
X62228127Y-105181428D01*
X62228127Y-105181428D02*
X62167651Y-105060476D01*
X62167651Y-105060476D02*
X62167651Y-104818571D01*
X62167651Y-104818571D02*
X62228127Y-104697619D01*
X63014318Y-103427618D02*
X63014318Y-104153333D01*
X63014318Y-103790476D02*
X61744318Y-103790476D01*
X61744318Y-103790476D02*
X61925746Y-103911428D01*
X61925746Y-103911428D02*
X62046699Y-104032380D01*
X62046699Y-104032380D02*
X62107175Y-104153333D01*
X67713809Y-75574318D02*
X67290475Y-74969556D01*
X66988094Y-75574318D02*
X66988094Y-74304318D01*
X66988094Y-74304318D02*
X67471904Y-74304318D01*
X67471904Y-74304318D02*
X67592856Y-74364794D01*
X67592856Y-74364794D02*
X67653333Y-74425270D01*
X67653333Y-74425270D02*
X67713809Y-74546222D01*
X67713809Y-74546222D02*
X67713809Y-74727651D01*
X67713809Y-74727651D02*
X67653333Y-74848603D01*
X67653333Y-74848603D02*
X67592856Y-74909080D01*
X67592856Y-74909080D02*
X67471904Y-74969556D01*
X67471904Y-74969556D02*
X66988094Y-74969556D01*
X68258094Y-74727651D02*
X68258094Y-75997651D01*
X68258094Y-74788127D02*
X68379047Y-74727651D01*
X68379047Y-74727651D02*
X68620952Y-74727651D01*
X68620952Y-74727651D02*
X68741904Y-74788127D01*
X68741904Y-74788127D02*
X68802380Y-74848603D01*
X68802380Y-74848603D02*
X68862856Y-74969556D01*
X68862856Y-74969556D02*
X68862856Y-75332413D01*
X68862856Y-75332413D02*
X68802380Y-75453365D01*
X68802380Y-75453365D02*
X68741904Y-75513842D01*
X68741904Y-75513842D02*
X68620952Y-75574318D01*
X68620952Y-75574318D02*
X68379047Y-75574318D01*
X68379047Y-75574318D02*
X68258094Y-75513842D01*
X70072381Y-75574318D02*
X69346666Y-75574318D01*
X69709523Y-75574318D02*
X69709523Y-74304318D01*
X69709523Y-74304318D02*
X69588571Y-74485746D01*
X69588571Y-74485746D02*
X69467619Y-74606699D01*
X69467619Y-74606699D02*
X69346666Y-74667175D01*
D11*
X191704819Y-94875594D02*
X190704819Y-94875594D01*
X190704819Y-94875594D02*
X190704819Y-94637499D01*
X190704819Y-94637499D02*
X190752438Y-94494642D01*
X190752438Y-94494642D02*
X190847676Y-94399404D01*
X190847676Y-94399404D02*
X190942914Y-94351785D01*
X190942914Y-94351785D02*
X191133390Y-94304166D01*
X191133390Y-94304166D02*
X191276247Y-94304166D01*
X191276247Y-94304166D02*
X191466723Y-94351785D01*
X191466723Y-94351785D02*
X191561961Y-94399404D01*
X191561961Y-94399404D02*
X191657200Y-94494642D01*
X191657200Y-94494642D02*
X191704819Y-94637499D01*
X191704819Y-94637499D02*
X191704819Y-94875594D01*
X191038152Y-93447023D02*
X191704819Y-93447023D01*
X190657200Y-93685118D02*
X191371485Y-93923213D01*
X191371485Y-93923213D02*
X191371485Y-93304166D01*
D10*
X117367142Y-99324318D02*
X116943808Y-98719556D01*
X116641427Y-99324318D02*
X116641427Y-98054318D01*
X116641427Y-98054318D02*
X117125237Y-98054318D01*
X117125237Y-98054318D02*
X117246189Y-98114794D01*
X117246189Y-98114794D02*
X117306666Y-98175270D01*
X117306666Y-98175270D02*
X117367142Y-98296222D01*
X117367142Y-98296222D02*
X117367142Y-98477651D01*
X117367142Y-98477651D02*
X117306666Y-98598603D01*
X117306666Y-98598603D02*
X117246189Y-98659080D01*
X117246189Y-98659080D02*
X117125237Y-98719556D01*
X117125237Y-98719556D02*
X116641427Y-98719556D01*
X117911427Y-98477651D02*
X117911427Y-99747651D01*
X117911427Y-98538127D02*
X118032380Y-98477651D01*
X118032380Y-98477651D02*
X118274285Y-98477651D01*
X118274285Y-98477651D02*
X118395237Y-98538127D01*
X118395237Y-98538127D02*
X118455713Y-98598603D01*
X118455713Y-98598603D02*
X118516189Y-98719556D01*
X118516189Y-98719556D02*
X118516189Y-99082413D01*
X118516189Y-99082413D02*
X118455713Y-99203365D01*
X118455713Y-99203365D02*
X118395237Y-99263842D01*
X118395237Y-99263842D02*
X118274285Y-99324318D01*
X118274285Y-99324318D02*
X118032380Y-99324318D01*
X118032380Y-99324318D02*
X117911427Y-99263842D01*
X119241904Y-99324318D02*
X119120952Y-99263842D01*
X119120952Y-99263842D02*
X119060475Y-99203365D01*
X119060475Y-99203365D02*
X118999999Y-99082413D01*
X118999999Y-99082413D02*
X118999999Y-98719556D01*
X118999999Y-98719556D02*
X119060475Y-98598603D01*
X119060475Y-98598603D02*
X119120952Y-98538127D01*
X119120952Y-98538127D02*
X119241904Y-98477651D01*
X119241904Y-98477651D02*
X119423333Y-98477651D01*
X119423333Y-98477651D02*
X119544285Y-98538127D01*
X119544285Y-98538127D02*
X119604761Y-98598603D01*
X119604761Y-98598603D02*
X119665237Y-98719556D01*
X119665237Y-98719556D02*
X119665237Y-99082413D01*
X119665237Y-99082413D02*
X119604761Y-99203365D01*
X119604761Y-99203365D02*
X119544285Y-99263842D01*
X119544285Y-99263842D02*
X119423333Y-99324318D01*
X119423333Y-99324318D02*
X119241904Y-99324318D01*
X120088571Y-98477651D02*
X120330476Y-99324318D01*
X120330476Y-99324318D02*
X120572381Y-98719556D01*
X120572381Y-98719556D02*
X120814285Y-99324318D01*
X120814285Y-99324318D02*
X121056190Y-98477651D01*
X121539999Y-98840508D02*
X122507619Y-98840508D01*
X123112380Y-99324318D02*
X123112380Y-98054318D01*
X123112380Y-98054318D02*
X123535714Y-98961461D01*
X123535714Y-98961461D02*
X123959047Y-98054318D01*
X123959047Y-98054318D02*
X123959047Y-99324318D01*
X124805714Y-98054318D02*
X125047619Y-98054318D01*
X125047619Y-98054318D02*
X125168571Y-98114794D01*
X125168571Y-98114794D02*
X125289524Y-98235746D01*
X125289524Y-98235746D02*
X125350000Y-98477651D01*
X125350000Y-98477651D02*
X125350000Y-98900984D01*
X125350000Y-98900984D02*
X125289524Y-99142889D01*
X125289524Y-99142889D02*
X125168571Y-99263842D01*
X125168571Y-99263842D02*
X125047619Y-99324318D01*
X125047619Y-99324318D02*
X124805714Y-99324318D01*
X124805714Y-99324318D02*
X124684762Y-99263842D01*
X124684762Y-99263842D02*
X124563809Y-99142889D01*
X124563809Y-99142889D02*
X124503333Y-98900984D01*
X124503333Y-98900984D02*
X124503333Y-98477651D01*
X124503333Y-98477651D02*
X124563809Y-98235746D01*
X124563809Y-98235746D02*
X124684762Y-98114794D01*
X124684762Y-98114794D02*
X124805714Y-98054318D01*
X125833809Y-99263842D02*
X126015238Y-99324318D01*
X126015238Y-99324318D02*
X126317619Y-99324318D01*
X126317619Y-99324318D02*
X126438571Y-99263842D01*
X126438571Y-99263842D02*
X126499047Y-99203365D01*
X126499047Y-99203365D02*
X126559524Y-99082413D01*
X126559524Y-99082413D02*
X126559524Y-98961461D01*
X126559524Y-98961461D02*
X126499047Y-98840508D01*
X126499047Y-98840508D02*
X126438571Y-98780032D01*
X126438571Y-98780032D02*
X126317619Y-98719556D01*
X126317619Y-98719556D02*
X126075714Y-98659080D01*
X126075714Y-98659080D02*
X125954762Y-98598603D01*
X125954762Y-98598603D02*
X125894285Y-98538127D01*
X125894285Y-98538127D02*
X125833809Y-98417175D01*
X125833809Y-98417175D02*
X125833809Y-98296222D01*
X125833809Y-98296222D02*
X125894285Y-98175270D01*
X125894285Y-98175270D02*
X125954762Y-98114794D01*
X125954762Y-98114794D02*
X126075714Y-98054318D01*
X126075714Y-98054318D02*
X126378095Y-98054318D01*
X126378095Y-98054318D02*
X126559524Y-98114794D01*
X127769048Y-99324318D02*
X127043333Y-99324318D01*
X127406190Y-99324318D02*
X127406190Y-98054318D01*
X127406190Y-98054318D02*
X127285238Y-98235746D01*
X127285238Y-98235746D02*
X127164286Y-98356699D01*
X127164286Y-98356699D02*
X127043333Y-98417175D01*
X172288333Y-45074318D02*
X171683571Y-45074318D01*
X171683571Y-45074318D02*
X171683571Y-43804318D01*
X172651190Y-43925270D02*
X172711666Y-43864794D01*
X172711666Y-43864794D02*
X172832619Y-43804318D01*
X172832619Y-43804318D02*
X173135000Y-43804318D01*
X173135000Y-43804318D02*
X173255952Y-43864794D01*
X173255952Y-43864794D02*
X173316428Y-43925270D01*
X173316428Y-43925270D02*
X173376905Y-44046222D01*
X173376905Y-44046222D02*
X173376905Y-44167175D01*
X173376905Y-44167175D02*
X173316428Y-44348603D01*
X173316428Y-44348603D02*
X172590714Y-45074318D01*
X172590714Y-45074318D02*
X173376905Y-45074318D01*
D11*
X119107142Y-104409580D02*
X119059523Y-104457200D01*
X119059523Y-104457200D02*
X118916666Y-104504819D01*
X118916666Y-104504819D02*
X118821428Y-104504819D01*
X118821428Y-104504819D02*
X118678571Y-104457200D01*
X118678571Y-104457200D02*
X118583333Y-104361961D01*
X118583333Y-104361961D02*
X118535714Y-104266723D01*
X118535714Y-104266723D02*
X118488095Y-104076247D01*
X118488095Y-104076247D02*
X118488095Y-103933390D01*
X118488095Y-103933390D02*
X118535714Y-103742914D01*
X118535714Y-103742914D02*
X118583333Y-103647676D01*
X118583333Y-103647676D02*
X118678571Y-103552438D01*
X118678571Y-103552438D02*
X118821428Y-103504819D01*
X118821428Y-103504819D02*
X118916666Y-103504819D01*
X118916666Y-103504819D02*
X119059523Y-103552438D01*
X119059523Y-103552438D02*
X119107142Y-103600057D01*
X119297619Y-104600057D02*
X120059523Y-104600057D01*
X120726190Y-104504819D02*
X120726190Y-103504819D01*
X120726190Y-104457200D02*
X120630952Y-104504819D01*
X120630952Y-104504819D02*
X120440476Y-104504819D01*
X120440476Y-104504819D02*
X120345238Y-104457200D01*
X120345238Y-104457200D02*
X120297619Y-104409580D01*
X120297619Y-104409580D02*
X120250000Y-104314342D01*
X120250000Y-104314342D02*
X120250000Y-104028628D01*
X120250000Y-104028628D02*
X120297619Y-103933390D01*
X120297619Y-103933390D02*
X120345238Y-103885771D01*
X120345238Y-103885771D02*
X120440476Y-103838152D01*
X120440476Y-103838152D02*
X120630952Y-103838152D01*
X120630952Y-103838152D02*
X120726190Y-103885771D01*
X121583333Y-104457200D02*
X121488095Y-104504819D01*
X121488095Y-104504819D02*
X121297619Y-104504819D01*
X121297619Y-104504819D02*
X121202381Y-104457200D01*
X121202381Y-104457200D02*
X121154762Y-104361961D01*
X121154762Y-104361961D02*
X121154762Y-103981009D01*
X121154762Y-103981009D02*
X121202381Y-103885771D01*
X121202381Y-103885771D02*
X121297619Y-103838152D01*
X121297619Y-103838152D02*
X121488095Y-103838152D01*
X121488095Y-103838152D02*
X121583333Y-103885771D01*
X121583333Y-103885771D02*
X121630952Y-103981009D01*
X121630952Y-103981009D02*
X121630952Y-104076247D01*
X121630952Y-104076247D02*
X121154762Y-104171485D01*
X122488095Y-104457200D02*
X122392857Y-104504819D01*
X122392857Y-104504819D02*
X122202381Y-104504819D01*
X122202381Y-104504819D02*
X122107143Y-104457200D01*
X122107143Y-104457200D02*
X122059524Y-104409580D01*
X122059524Y-104409580D02*
X122011905Y-104314342D01*
X122011905Y-104314342D02*
X122011905Y-104028628D01*
X122011905Y-104028628D02*
X122059524Y-103933390D01*
X122059524Y-103933390D02*
X122107143Y-103885771D01*
X122107143Y-103885771D02*
X122202381Y-103838152D01*
X122202381Y-103838152D02*
X122392857Y-103838152D01*
X122392857Y-103838152D02*
X122488095Y-103885771D01*
X123059524Y-104504819D02*
X122964286Y-104457200D01*
X122964286Y-104457200D02*
X122916667Y-104409580D01*
X122916667Y-104409580D02*
X122869048Y-104314342D01*
X122869048Y-104314342D02*
X122869048Y-104028628D01*
X122869048Y-104028628D02*
X122916667Y-103933390D01*
X122916667Y-103933390D02*
X122964286Y-103885771D01*
X122964286Y-103885771D02*
X123059524Y-103838152D01*
X123059524Y-103838152D02*
X123202381Y-103838152D01*
X123202381Y-103838152D02*
X123297619Y-103885771D01*
X123297619Y-103885771D02*
X123345238Y-103933390D01*
X123345238Y-103933390D02*
X123392857Y-104028628D01*
X123392857Y-104028628D02*
X123392857Y-104314342D01*
X123392857Y-104314342D02*
X123345238Y-104409580D01*
X123345238Y-104409580D02*
X123297619Y-104457200D01*
X123297619Y-104457200D02*
X123202381Y-104504819D01*
X123202381Y-104504819D02*
X123059524Y-104504819D01*
X123821429Y-103838152D02*
X123821429Y-104838152D01*
X123821429Y-103885771D02*
X123916667Y-103838152D01*
X123916667Y-103838152D02*
X124107143Y-103838152D01*
X124107143Y-103838152D02*
X124202381Y-103885771D01*
X124202381Y-103885771D02*
X124250000Y-103933390D01*
X124250000Y-103933390D02*
X124297619Y-104028628D01*
X124297619Y-104028628D02*
X124297619Y-104314342D01*
X124297619Y-104314342D02*
X124250000Y-104409580D01*
X124250000Y-104409580D02*
X124202381Y-104457200D01*
X124202381Y-104457200D02*
X124107143Y-104504819D01*
X124107143Y-104504819D02*
X123916667Y-104504819D01*
X123916667Y-104504819D02*
X123821429Y-104457200D01*
X124488096Y-104600057D02*
X125250000Y-104600057D01*
X125392858Y-103504819D02*
X126011905Y-103504819D01*
X126011905Y-103504819D02*
X125678572Y-103885771D01*
X125678572Y-103885771D02*
X125821429Y-103885771D01*
X125821429Y-103885771D02*
X125916667Y-103933390D01*
X125916667Y-103933390D02*
X125964286Y-103981009D01*
X125964286Y-103981009D02*
X126011905Y-104076247D01*
X126011905Y-104076247D02*
X126011905Y-104314342D01*
X126011905Y-104314342D02*
X125964286Y-104409580D01*
X125964286Y-104409580D02*
X125916667Y-104457200D01*
X125916667Y-104457200D02*
X125821429Y-104504819D01*
X125821429Y-104504819D02*
X125535715Y-104504819D01*
X125535715Y-104504819D02*
X125440477Y-104457200D01*
X125440477Y-104457200D02*
X125392858Y-104409580D01*
X224429580Y-93600595D02*
X224477200Y-93648214D01*
X224477200Y-93648214D02*
X224524819Y-93791071D01*
X224524819Y-93791071D02*
X224524819Y-93886309D01*
X224524819Y-93886309D02*
X224477200Y-94029166D01*
X224477200Y-94029166D02*
X224381961Y-94124404D01*
X224381961Y-94124404D02*
X224286723Y-94172023D01*
X224286723Y-94172023D02*
X224096247Y-94219642D01*
X224096247Y-94219642D02*
X223953390Y-94219642D01*
X223953390Y-94219642D02*
X223762914Y-94172023D01*
X223762914Y-94172023D02*
X223667676Y-94124404D01*
X223667676Y-94124404D02*
X223572438Y-94029166D01*
X223572438Y-94029166D02*
X223524819Y-93886309D01*
X223524819Y-93886309D02*
X223524819Y-93791071D01*
X223524819Y-93791071D02*
X223572438Y-93648214D01*
X223572438Y-93648214D02*
X223620057Y-93600595D01*
X224620057Y-93410119D02*
X224620057Y-92648214D01*
X224524819Y-92267261D02*
X224477200Y-92362499D01*
X224477200Y-92362499D02*
X224429580Y-92410118D01*
X224429580Y-92410118D02*
X224334342Y-92457737D01*
X224334342Y-92457737D02*
X224048628Y-92457737D01*
X224048628Y-92457737D02*
X223953390Y-92410118D01*
X223953390Y-92410118D02*
X223905771Y-92362499D01*
X223905771Y-92362499D02*
X223858152Y-92267261D01*
X223858152Y-92267261D02*
X223858152Y-92124404D01*
X223858152Y-92124404D02*
X223905771Y-92029166D01*
X223905771Y-92029166D02*
X223953390Y-91981547D01*
X223953390Y-91981547D02*
X224048628Y-91933928D01*
X224048628Y-91933928D02*
X224334342Y-91933928D01*
X224334342Y-91933928D02*
X224429580Y-91981547D01*
X224429580Y-91981547D02*
X224477200Y-92029166D01*
X224477200Y-92029166D02*
X224524819Y-92124404D01*
X224524819Y-92124404D02*
X224524819Y-92267261D01*
X223858152Y-91076785D02*
X224524819Y-91076785D01*
X223858152Y-91505356D02*
X224381961Y-91505356D01*
X224381961Y-91505356D02*
X224477200Y-91457737D01*
X224477200Y-91457737D02*
X224524819Y-91362499D01*
X224524819Y-91362499D02*
X224524819Y-91219642D01*
X224524819Y-91219642D02*
X224477200Y-91124404D01*
X224477200Y-91124404D02*
X224429580Y-91076785D01*
X223858152Y-90743451D02*
X223858152Y-90362499D01*
X223524819Y-90600594D02*
X224381961Y-90600594D01*
X224381961Y-90600594D02*
X224477200Y-90552975D01*
X224477200Y-90552975D02*
X224524819Y-90457737D01*
X224524819Y-90457737D02*
X224524819Y-90362499D01*
X224524819Y-89505356D02*
X224524819Y-90076784D01*
X224524819Y-89791070D02*
X223524819Y-89791070D01*
X223524819Y-89791070D02*
X223667676Y-89886308D01*
X223667676Y-89886308D02*
X223762914Y-89981546D01*
X223762914Y-89981546D02*
X223810533Y-90076784D01*
X77107142Y-111659580D02*
X77059523Y-111707200D01*
X77059523Y-111707200D02*
X76916666Y-111754819D01*
X76916666Y-111754819D02*
X76821428Y-111754819D01*
X76821428Y-111754819D02*
X76678571Y-111707200D01*
X76678571Y-111707200D02*
X76583333Y-111611961D01*
X76583333Y-111611961D02*
X76535714Y-111516723D01*
X76535714Y-111516723D02*
X76488095Y-111326247D01*
X76488095Y-111326247D02*
X76488095Y-111183390D01*
X76488095Y-111183390D02*
X76535714Y-110992914D01*
X76535714Y-110992914D02*
X76583333Y-110897676D01*
X76583333Y-110897676D02*
X76678571Y-110802438D01*
X76678571Y-110802438D02*
X76821428Y-110754819D01*
X76821428Y-110754819D02*
X76916666Y-110754819D01*
X76916666Y-110754819D02*
X77059523Y-110802438D01*
X77059523Y-110802438D02*
X77107142Y-110850057D01*
X77297619Y-111850057D02*
X78059523Y-111850057D01*
X78726190Y-111754819D02*
X78726190Y-110754819D01*
X78726190Y-111707200D02*
X78630952Y-111754819D01*
X78630952Y-111754819D02*
X78440476Y-111754819D01*
X78440476Y-111754819D02*
X78345238Y-111707200D01*
X78345238Y-111707200D02*
X78297619Y-111659580D01*
X78297619Y-111659580D02*
X78250000Y-111564342D01*
X78250000Y-111564342D02*
X78250000Y-111278628D01*
X78250000Y-111278628D02*
X78297619Y-111183390D01*
X78297619Y-111183390D02*
X78345238Y-111135771D01*
X78345238Y-111135771D02*
X78440476Y-111088152D01*
X78440476Y-111088152D02*
X78630952Y-111088152D01*
X78630952Y-111088152D02*
X78726190Y-111135771D01*
X79583333Y-111707200D02*
X79488095Y-111754819D01*
X79488095Y-111754819D02*
X79297619Y-111754819D01*
X79297619Y-111754819D02*
X79202381Y-111707200D01*
X79202381Y-111707200D02*
X79154762Y-111611961D01*
X79154762Y-111611961D02*
X79154762Y-111231009D01*
X79154762Y-111231009D02*
X79202381Y-111135771D01*
X79202381Y-111135771D02*
X79297619Y-111088152D01*
X79297619Y-111088152D02*
X79488095Y-111088152D01*
X79488095Y-111088152D02*
X79583333Y-111135771D01*
X79583333Y-111135771D02*
X79630952Y-111231009D01*
X79630952Y-111231009D02*
X79630952Y-111326247D01*
X79630952Y-111326247D02*
X79154762Y-111421485D01*
X80488095Y-111707200D02*
X80392857Y-111754819D01*
X80392857Y-111754819D02*
X80202381Y-111754819D01*
X80202381Y-111754819D02*
X80107143Y-111707200D01*
X80107143Y-111707200D02*
X80059524Y-111659580D01*
X80059524Y-111659580D02*
X80011905Y-111564342D01*
X80011905Y-111564342D02*
X80011905Y-111278628D01*
X80011905Y-111278628D02*
X80059524Y-111183390D01*
X80059524Y-111183390D02*
X80107143Y-111135771D01*
X80107143Y-111135771D02*
X80202381Y-111088152D01*
X80202381Y-111088152D02*
X80392857Y-111088152D01*
X80392857Y-111088152D02*
X80488095Y-111135771D01*
X81059524Y-111754819D02*
X80964286Y-111707200D01*
X80964286Y-111707200D02*
X80916667Y-111659580D01*
X80916667Y-111659580D02*
X80869048Y-111564342D01*
X80869048Y-111564342D02*
X80869048Y-111278628D01*
X80869048Y-111278628D02*
X80916667Y-111183390D01*
X80916667Y-111183390D02*
X80964286Y-111135771D01*
X80964286Y-111135771D02*
X81059524Y-111088152D01*
X81059524Y-111088152D02*
X81202381Y-111088152D01*
X81202381Y-111088152D02*
X81297619Y-111135771D01*
X81297619Y-111135771D02*
X81345238Y-111183390D01*
X81345238Y-111183390D02*
X81392857Y-111278628D01*
X81392857Y-111278628D02*
X81392857Y-111564342D01*
X81392857Y-111564342D02*
X81345238Y-111659580D01*
X81345238Y-111659580D02*
X81297619Y-111707200D01*
X81297619Y-111707200D02*
X81202381Y-111754819D01*
X81202381Y-111754819D02*
X81059524Y-111754819D01*
X81821429Y-111088152D02*
X81821429Y-112088152D01*
X81821429Y-111135771D02*
X81916667Y-111088152D01*
X81916667Y-111088152D02*
X82107143Y-111088152D01*
X82107143Y-111088152D02*
X82202381Y-111135771D01*
X82202381Y-111135771D02*
X82250000Y-111183390D01*
X82250000Y-111183390D02*
X82297619Y-111278628D01*
X82297619Y-111278628D02*
X82297619Y-111564342D01*
X82297619Y-111564342D02*
X82250000Y-111659580D01*
X82250000Y-111659580D02*
X82202381Y-111707200D01*
X82202381Y-111707200D02*
X82107143Y-111754819D01*
X82107143Y-111754819D02*
X81916667Y-111754819D01*
X81916667Y-111754819D02*
X81821429Y-111707200D01*
X82488096Y-111850057D02*
X83250000Y-111850057D01*
X83916667Y-111088152D02*
X83916667Y-111754819D01*
X83678572Y-110707200D02*
X83440477Y-111421485D01*
X83440477Y-111421485D02*
X84059524Y-111421485D01*
D10*
X110319523Y-111324318D02*
X109896189Y-110719556D01*
X109593808Y-111324318D02*
X109593808Y-110054318D01*
X109593808Y-110054318D02*
X110077618Y-110054318D01*
X110077618Y-110054318D02*
X110198570Y-110114794D01*
X110198570Y-110114794D02*
X110259047Y-110175270D01*
X110259047Y-110175270D02*
X110319523Y-110296222D01*
X110319523Y-110296222D02*
X110319523Y-110477651D01*
X110319523Y-110477651D02*
X110259047Y-110598603D01*
X110259047Y-110598603D02*
X110198570Y-110659080D01*
X110198570Y-110659080D02*
X110077618Y-110719556D01*
X110077618Y-110719556D02*
X109593808Y-110719556D01*
X110863808Y-110477651D02*
X110863808Y-111747651D01*
X110863808Y-110538127D02*
X110984761Y-110477651D01*
X110984761Y-110477651D02*
X111226666Y-110477651D01*
X111226666Y-110477651D02*
X111347618Y-110538127D01*
X111347618Y-110538127D02*
X111408094Y-110598603D01*
X111408094Y-110598603D02*
X111468570Y-110719556D01*
X111468570Y-110719556D02*
X111468570Y-111082413D01*
X111468570Y-111082413D02*
X111408094Y-111203365D01*
X111408094Y-111203365D02*
X111347618Y-111263842D01*
X111347618Y-111263842D02*
X111226666Y-111324318D01*
X111226666Y-111324318D02*
X110984761Y-111324318D01*
X110984761Y-111324318D02*
X110863808Y-111263842D01*
X112194285Y-111324318D02*
X112073333Y-111263842D01*
X112073333Y-111263842D02*
X112012856Y-111203365D01*
X112012856Y-111203365D02*
X111952380Y-111082413D01*
X111952380Y-111082413D02*
X111952380Y-110719556D01*
X111952380Y-110719556D02*
X112012856Y-110598603D01*
X112012856Y-110598603D02*
X112073333Y-110538127D01*
X112073333Y-110538127D02*
X112194285Y-110477651D01*
X112194285Y-110477651D02*
X112375714Y-110477651D01*
X112375714Y-110477651D02*
X112496666Y-110538127D01*
X112496666Y-110538127D02*
X112557142Y-110598603D01*
X112557142Y-110598603D02*
X112617618Y-110719556D01*
X112617618Y-110719556D02*
X112617618Y-111082413D01*
X112617618Y-111082413D02*
X112557142Y-111203365D01*
X112557142Y-111203365D02*
X112496666Y-111263842D01*
X112496666Y-111263842D02*
X112375714Y-111324318D01*
X112375714Y-111324318D02*
X112194285Y-111324318D01*
X113040952Y-110477651D02*
X113282857Y-111324318D01*
X113282857Y-111324318D02*
X113524762Y-110719556D01*
X113524762Y-110719556D02*
X113766666Y-111324318D01*
X113766666Y-111324318D02*
X114008571Y-110477651D01*
X114190000Y-111445270D02*
X115157619Y-111445270D01*
X115459999Y-111324318D02*
X115459999Y-110054318D01*
X115459999Y-110054318D02*
X115883333Y-110961461D01*
X115883333Y-110961461D02*
X116306666Y-110054318D01*
X116306666Y-110054318D02*
X116306666Y-111324318D01*
X117153333Y-110054318D02*
X117395238Y-110054318D01*
X117395238Y-110054318D02*
X117516190Y-110114794D01*
X117516190Y-110114794D02*
X117637143Y-110235746D01*
X117637143Y-110235746D02*
X117697619Y-110477651D01*
X117697619Y-110477651D02*
X117697619Y-110900984D01*
X117697619Y-110900984D02*
X117637143Y-111142889D01*
X117637143Y-111142889D02*
X117516190Y-111263842D01*
X117516190Y-111263842D02*
X117395238Y-111324318D01*
X117395238Y-111324318D02*
X117153333Y-111324318D01*
X117153333Y-111324318D02*
X117032381Y-111263842D01*
X117032381Y-111263842D02*
X116911428Y-111142889D01*
X116911428Y-111142889D02*
X116850952Y-110900984D01*
X116850952Y-110900984D02*
X116850952Y-110477651D01*
X116850952Y-110477651D02*
X116911428Y-110235746D01*
X116911428Y-110235746D02*
X117032381Y-110114794D01*
X117032381Y-110114794D02*
X117153333Y-110054318D01*
X118181428Y-111263842D02*
X118362857Y-111324318D01*
X118362857Y-111324318D02*
X118665238Y-111324318D01*
X118665238Y-111324318D02*
X118786190Y-111263842D01*
X118786190Y-111263842D02*
X118846666Y-111203365D01*
X118846666Y-111203365D02*
X118907143Y-111082413D01*
X118907143Y-111082413D02*
X118907143Y-110961461D01*
X118907143Y-110961461D02*
X118846666Y-110840508D01*
X118846666Y-110840508D02*
X118786190Y-110780032D01*
X118786190Y-110780032D02*
X118665238Y-110719556D01*
X118665238Y-110719556D02*
X118423333Y-110659080D01*
X118423333Y-110659080D02*
X118302381Y-110598603D01*
X118302381Y-110598603D02*
X118241904Y-110538127D01*
X118241904Y-110538127D02*
X118181428Y-110417175D01*
X118181428Y-110417175D02*
X118181428Y-110296222D01*
X118181428Y-110296222D02*
X118241904Y-110175270D01*
X118241904Y-110175270D02*
X118302381Y-110114794D01*
X118302381Y-110114794D02*
X118423333Y-110054318D01*
X118423333Y-110054318D02*
X118725714Y-110054318D01*
X118725714Y-110054318D02*
X118907143Y-110114794D01*
X120116667Y-111324318D02*
X119390952Y-111324318D01*
X119753809Y-111324318D02*
X119753809Y-110054318D01*
X119753809Y-110054318D02*
X119632857Y-110235746D01*
X119632857Y-110235746D02*
X119511905Y-110356699D01*
X119511905Y-110356699D02*
X119390952Y-110417175D01*
X102157143Y-110574318D02*
X101733809Y-109969556D01*
X101431428Y-110574318D02*
X101431428Y-109304318D01*
X101431428Y-109304318D02*
X101915238Y-109304318D01*
X101915238Y-109304318D02*
X102036190Y-109364794D01*
X102036190Y-109364794D02*
X102096667Y-109425270D01*
X102096667Y-109425270D02*
X102157143Y-109546222D01*
X102157143Y-109546222D02*
X102157143Y-109727651D01*
X102157143Y-109727651D02*
X102096667Y-109848603D01*
X102096667Y-109848603D02*
X102036190Y-109909080D01*
X102036190Y-109909080D02*
X101915238Y-109969556D01*
X101915238Y-109969556D02*
X101431428Y-109969556D01*
X103245714Y-109727651D02*
X103245714Y-110755746D01*
X103245714Y-110755746D02*
X103185238Y-110876699D01*
X103185238Y-110876699D02*
X103124762Y-110937175D01*
X103124762Y-110937175D02*
X103003809Y-110997651D01*
X103003809Y-110997651D02*
X102822381Y-110997651D01*
X102822381Y-110997651D02*
X102701428Y-110937175D01*
X103245714Y-110513842D02*
X103124762Y-110574318D01*
X103124762Y-110574318D02*
X102882857Y-110574318D01*
X102882857Y-110574318D02*
X102761905Y-110513842D01*
X102761905Y-110513842D02*
X102701428Y-110453365D01*
X102701428Y-110453365D02*
X102640952Y-110332413D01*
X102640952Y-110332413D02*
X102640952Y-109969556D01*
X102640952Y-109969556D02*
X102701428Y-109848603D01*
X102701428Y-109848603D02*
X102761905Y-109788127D01*
X102761905Y-109788127D02*
X102882857Y-109727651D01*
X102882857Y-109727651D02*
X103124762Y-109727651D01*
X103124762Y-109727651D02*
X103245714Y-109788127D01*
X104394762Y-110574318D02*
X104394762Y-109909080D01*
X104394762Y-109909080D02*
X104334286Y-109788127D01*
X104334286Y-109788127D02*
X104213334Y-109727651D01*
X104213334Y-109727651D02*
X103971429Y-109727651D01*
X103971429Y-109727651D02*
X103850476Y-109788127D01*
X104394762Y-110513842D02*
X104273810Y-110574318D01*
X104273810Y-110574318D02*
X103971429Y-110574318D01*
X103971429Y-110574318D02*
X103850476Y-110513842D01*
X103850476Y-110513842D02*
X103790000Y-110392889D01*
X103790000Y-110392889D02*
X103790000Y-110271937D01*
X103790000Y-110271937D02*
X103850476Y-110150984D01*
X103850476Y-110150984D02*
X103971429Y-110090508D01*
X103971429Y-110090508D02*
X104273810Y-110090508D01*
X104273810Y-110090508D02*
X104394762Y-110030032D01*
X104818096Y-109727651D02*
X105301905Y-109727651D01*
X104999524Y-109304318D02*
X104999524Y-110392889D01*
X104999524Y-110392889D02*
X105060001Y-110513842D01*
X105060001Y-110513842D02*
X105180953Y-110574318D01*
X105180953Y-110574318D02*
X105301905Y-110574318D01*
X106209048Y-110513842D02*
X106088096Y-110574318D01*
X106088096Y-110574318D02*
X105846191Y-110574318D01*
X105846191Y-110574318D02*
X105725238Y-110513842D01*
X105725238Y-110513842D02*
X105664762Y-110392889D01*
X105664762Y-110392889D02*
X105664762Y-109909080D01*
X105664762Y-109909080D02*
X105725238Y-109788127D01*
X105725238Y-109788127D02*
X105846191Y-109727651D01*
X105846191Y-109727651D02*
X106088096Y-109727651D01*
X106088096Y-109727651D02*
X106209048Y-109788127D01*
X106209048Y-109788127D02*
X106269524Y-109909080D01*
X106269524Y-109909080D02*
X106269524Y-110030032D01*
X106269524Y-110030032D02*
X105664762Y-110150984D01*
X107479048Y-110574318D02*
X106753333Y-110574318D01*
X107116190Y-110574318D02*
X107116190Y-109304318D01*
X107116190Y-109304318D02*
X106995238Y-109485746D01*
X106995238Y-109485746D02*
X106874286Y-109606699D01*
X106874286Y-109606699D02*
X106753333Y-109667175D01*
D11*
X208454819Y-80271904D02*
X209264342Y-80271904D01*
X209264342Y-80271904D02*
X209359580Y-80224285D01*
X209359580Y-80224285D02*
X209407200Y-80176666D01*
X209407200Y-80176666D02*
X209454819Y-80081428D01*
X209454819Y-80081428D02*
X209454819Y-79890952D01*
X209454819Y-79890952D02*
X209407200Y-79795714D01*
X209407200Y-79795714D02*
X209359580Y-79748095D01*
X209359580Y-79748095D02*
X209264342Y-79700476D01*
X209264342Y-79700476D02*
X208454819Y-79700476D01*
X209454819Y-78700476D02*
X209454819Y-79271904D01*
X209454819Y-78986190D02*
X208454819Y-78986190D01*
X208454819Y-78986190D02*
X208597676Y-79081428D01*
X208597676Y-79081428D02*
X208692914Y-79176666D01*
X208692914Y-79176666D02*
X208740533Y-79271904D01*
D10*
X54754318Y-55423332D02*
X55661461Y-55423332D01*
X55661461Y-55423332D02*
X55842889Y-55483809D01*
X55842889Y-55483809D02*
X55963842Y-55604761D01*
X55963842Y-55604761D02*
X56024318Y-55786190D01*
X56024318Y-55786190D02*
X56024318Y-55907142D01*
X56024318Y-54153332D02*
X56024318Y-54879047D01*
X56024318Y-54516190D02*
X54754318Y-54516190D01*
X54754318Y-54516190D02*
X54935746Y-54637142D01*
X54935746Y-54637142D02*
X55056699Y-54758094D01*
X55056699Y-54758094D02*
X55117175Y-54879047D01*
X109288333Y-46574318D02*
X108683571Y-46574318D01*
X108683571Y-46574318D02*
X108683571Y-45304318D01*
X110376905Y-46574318D02*
X109651190Y-46574318D01*
X110014047Y-46574318D02*
X110014047Y-45304318D01*
X110014047Y-45304318D02*
X109893095Y-45485746D01*
X109893095Y-45485746D02*
X109772143Y-45606699D01*
X109772143Y-45606699D02*
X109651190Y-45667175D01*
X101649047Y-99574318D02*
X101225713Y-98969556D01*
X100923332Y-99574318D02*
X100923332Y-98304318D01*
X100923332Y-98304318D02*
X101407142Y-98304318D01*
X101407142Y-98304318D02*
X101528094Y-98364794D01*
X101528094Y-98364794D02*
X101588571Y-98425270D01*
X101588571Y-98425270D02*
X101649047Y-98546222D01*
X101649047Y-98546222D02*
X101649047Y-98727651D01*
X101649047Y-98727651D02*
X101588571Y-98848603D01*
X101588571Y-98848603D02*
X101528094Y-98909080D01*
X101528094Y-98909080D02*
X101407142Y-98969556D01*
X101407142Y-98969556D02*
X100923332Y-98969556D01*
X102193332Y-98727651D02*
X102193332Y-99997651D01*
X102193332Y-98788127D02*
X102314285Y-98727651D01*
X102314285Y-98727651D02*
X102556190Y-98727651D01*
X102556190Y-98727651D02*
X102677142Y-98788127D01*
X102677142Y-98788127D02*
X102737618Y-98848603D01*
X102737618Y-98848603D02*
X102798094Y-98969556D01*
X102798094Y-98969556D02*
X102798094Y-99332413D01*
X102798094Y-99332413D02*
X102737618Y-99453365D01*
X102737618Y-99453365D02*
X102677142Y-99513842D01*
X102677142Y-99513842D02*
X102556190Y-99574318D01*
X102556190Y-99574318D02*
X102314285Y-99574318D01*
X102314285Y-99574318D02*
X102193332Y-99513842D01*
X103523809Y-99574318D02*
X103402857Y-99513842D01*
X103402857Y-99513842D02*
X103342380Y-99453365D01*
X103342380Y-99453365D02*
X103281904Y-99332413D01*
X103281904Y-99332413D02*
X103281904Y-98969556D01*
X103281904Y-98969556D02*
X103342380Y-98848603D01*
X103342380Y-98848603D02*
X103402857Y-98788127D01*
X103402857Y-98788127D02*
X103523809Y-98727651D01*
X103523809Y-98727651D02*
X103705238Y-98727651D01*
X103705238Y-98727651D02*
X103826190Y-98788127D01*
X103826190Y-98788127D02*
X103886666Y-98848603D01*
X103886666Y-98848603D02*
X103947142Y-98969556D01*
X103947142Y-98969556D02*
X103947142Y-99332413D01*
X103947142Y-99332413D02*
X103886666Y-99453365D01*
X103886666Y-99453365D02*
X103826190Y-99513842D01*
X103826190Y-99513842D02*
X103705238Y-99574318D01*
X103705238Y-99574318D02*
X103523809Y-99574318D01*
X104370476Y-98727651D02*
X104612381Y-99574318D01*
X104612381Y-99574318D02*
X104854286Y-98969556D01*
X104854286Y-98969556D02*
X105096190Y-99574318D01*
X105096190Y-99574318D02*
X105338095Y-98727651D01*
X106487143Y-99574318D02*
X105761428Y-99574318D01*
X106124285Y-99574318D02*
X106124285Y-98304318D01*
X106124285Y-98304318D02*
X106003333Y-98485746D01*
X106003333Y-98485746D02*
X105882381Y-98606699D01*
X105882381Y-98606699D02*
X105761428Y-98667175D01*
D11*
X203199580Y-93730000D02*
X203247200Y-93777619D01*
X203247200Y-93777619D02*
X203294819Y-93920476D01*
X203294819Y-93920476D02*
X203294819Y-94015714D01*
X203294819Y-94015714D02*
X203247200Y-94158571D01*
X203247200Y-94158571D02*
X203151961Y-94253809D01*
X203151961Y-94253809D02*
X203056723Y-94301428D01*
X203056723Y-94301428D02*
X202866247Y-94349047D01*
X202866247Y-94349047D02*
X202723390Y-94349047D01*
X202723390Y-94349047D02*
X202532914Y-94301428D01*
X202532914Y-94301428D02*
X202437676Y-94253809D01*
X202437676Y-94253809D02*
X202342438Y-94158571D01*
X202342438Y-94158571D02*
X202294819Y-94015714D01*
X202294819Y-94015714D02*
X202294819Y-93920476D01*
X202294819Y-93920476D02*
X202342438Y-93777619D01*
X202342438Y-93777619D02*
X202390057Y-93730000D01*
X203390057Y-93539524D02*
X203390057Y-92777619D01*
X203294819Y-92539523D02*
X202628152Y-92539523D01*
X202818628Y-92539523D02*
X202723390Y-92491904D01*
X202723390Y-92491904D02*
X202675771Y-92444285D01*
X202675771Y-92444285D02*
X202628152Y-92349047D01*
X202628152Y-92349047D02*
X202628152Y-92253809D01*
X203247200Y-91539523D02*
X203294819Y-91634761D01*
X203294819Y-91634761D02*
X203294819Y-91825237D01*
X203294819Y-91825237D02*
X203247200Y-91920475D01*
X203247200Y-91920475D02*
X203151961Y-91968094D01*
X203151961Y-91968094D02*
X202771009Y-91968094D01*
X202771009Y-91968094D02*
X202675771Y-91920475D01*
X202675771Y-91920475D02*
X202628152Y-91825237D01*
X202628152Y-91825237D02*
X202628152Y-91634761D01*
X202628152Y-91634761D02*
X202675771Y-91539523D01*
X202675771Y-91539523D02*
X202771009Y-91491904D01*
X202771009Y-91491904D02*
X202866247Y-91491904D01*
X202866247Y-91491904D02*
X202961485Y-91968094D01*
X203247200Y-90634761D02*
X203294819Y-90729999D01*
X203294819Y-90729999D02*
X203294819Y-90920475D01*
X203294819Y-90920475D02*
X203247200Y-91015713D01*
X203247200Y-91015713D02*
X203199580Y-91063332D01*
X203199580Y-91063332D02*
X203104342Y-91110951D01*
X203104342Y-91110951D02*
X202818628Y-91110951D01*
X202818628Y-91110951D02*
X202723390Y-91063332D01*
X202723390Y-91063332D02*
X202675771Y-91015713D01*
X202675771Y-91015713D02*
X202628152Y-90920475D01*
X202628152Y-90920475D02*
X202628152Y-90729999D01*
X202628152Y-90729999D02*
X202675771Y-90634761D01*
X202628152Y-90349046D02*
X202628152Y-89968094D01*
X202294819Y-90206189D02*
X203151961Y-90206189D01*
X203151961Y-90206189D02*
X203247200Y-90158570D01*
X203247200Y-90158570D02*
X203294819Y-90063332D01*
X203294819Y-90063332D02*
X203294819Y-89968094D01*
X203294819Y-89110951D02*
X203294819Y-89682379D01*
X203294819Y-89396665D02*
X202294819Y-89396665D01*
X202294819Y-89396665D02*
X202437676Y-89491903D01*
X202437676Y-89491903D02*
X202532914Y-89587141D01*
X202532914Y-89587141D02*
X202580533Y-89682379D01*
X93728810Y-102122819D02*
X93728810Y-101122819D01*
X94776428Y-102027580D02*
X94728809Y-102075200D01*
X94728809Y-102075200D02*
X94585952Y-102122819D01*
X94585952Y-102122819D02*
X94490714Y-102122819D01*
X94490714Y-102122819D02*
X94347857Y-102075200D01*
X94347857Y-102075200D02*
X94252619Y-101979961D01*
X94252619Y-101979961D02*
X94205000Y-101884723D01*
X94205000Y-101884723D02*
X94157381Y-101694247D01*
X94157381Y-101694247D02*
X94157381Y-101551390D01*
X94157381Y-101551390D02*
X94205000Y-101360914D01*
X94205000Y-101360914D02*
X94252619Y-101265676D01*
X94252619Y-101265676D02*
X94347857Y-101170438D01*
X94347857Y-101170438D02*
X94490714Y-101122819D01*
X94490714Y-101122819D02*
X94585952Y-101122819D01*
X94585952Y-101122819D02*
X94728809Y-101170438D01*
X94728809Y-101170438D02*
X94776428Y-101218057D01*
X95728809Y-102122819D02*
X95157381Y-102122819D01*
X95443095Y-102122819D02*
X95443095Y-101122819D01*
X95443095Y-101122819D02*
X95347857Y-101265676D01*
X95347857Y-101265676D02*
X95252619Y-101360914D01*
X95252619Y-101360914D02*
X95157381Y-101408533D01*
X111607142Y-114179580D02*
X111559523Y-114227200D01*
X111559523Y-114227200D02*
X111416666Y-114274819D01*
X111416666Y-114274819D02*
X111321428Y-114274819D01*
X111321428Y-114274819D02*
X111178571Y-114227200D01*
X111178571Y-114227200D02*
X111083333Y-114131961D01*
X111083333Y-114131961D02*
X111035714Y-114036723D01*
X111035714Y-114036723D02*
X110988095Y-113846247D01*
X110988095Y-113846247D02*
X110988095Y-113703390D01*
X110988095Y-113703390D02*
X111035714Y-113512914D01*
X111035714Y-113512914D02*
X111083333Y-113417676D01*
X111083333Y-113417676D02*
X111178571Y-113322438D01*
X111178571Y-113322438D02*
X111321428Y-113274819D01*
X111321428Y-113274819D02*
X111416666Y-113274819D01*
X111416666Y-113274819D02*
X111559523Y-113322438D01*
X111559523Y-113322438D02*
X111607142Y-113370057D01*
X111797619Y-114370057D02*
X112559523Y-114370057D01*
X113226190Y-114274819D02*
X113226190Y-113274819D01*
X113226190Y-114227200D02*
X113130952Y-114274819D01*
X113130952Y-114274819D02*
X112940476Y-114274819D01*
X112940476Y-114274819D02*
X112845238Y-114227200D01*
X112845238Y-114227200D02*
X112797619Y-114179580D01*
X112797619Y-114179580D02*
X112750000Y-114084342D01*
X112750000Y-114084342D02*
X112750000Y-113798628D01*
X112750000Y-113798628D02*
X112797619Y-113703390D01*
X112797619Y-113703390D02*
X112845238Y-113655771D01*
X112845238Y-113655771D02*
X112940476Y-113608152D01*
X112940476Y-113608152D02*
X113130952Y-113608152D01*
X113130952Y-113608152D02*
X113226190Y-113655771D01*
X114083333Y-114227200D02*
X113988095Y-114274819D01*
X113988095Y-114274819D02*
X113797619Y-114274819D01*
X113797619Y-114274819D02*
X113702381Y-114227200D01*
X113702381Y-114227200D02*
X113654762Y-114131961D01*
X113654762Y-114131961D02*
X113654762Y-113751009D01*
X113654762Y-113751009D02*
X113702381Y-113655771D01*
X113702381Y-113655771D02*
X113797619Y-113608152D01*
X113797619Y-113608152D02*
X113988095Y-113608152D01*
X113988095Y-113608152D02*
X114083333Y-113655771D01*
X114083333Y-113655771D02*
X114130952Y-113751009D01*
X114130952Y-113751009D02*
X114130952Y-113846247D01*
X114130952Y-113846247D02*
X113654762Y-113941485D01*
X114988095Y-114227200D02*
X114892857Y-114274819D01*
X114892857Y-114274819D02*
X114702381Y-114274819D01*
X114702381Y-114274819D02*
X114607143Y-114227200D01*
X114607143Y-114227200D02*
X114559524Y-114179580D01*
X114559524Y-114179580D02*
X114511905Y-114084342D01*
X114511905Y-114084342D02*
X114511905Y-113798628D01*
X114511905Y-113798628D02*
X114559524Y-113703390D01*
X114559524Y-113703390D02*
X114607143Y-113655771D01*
X114607143Y-113655771D02*
X114702381Y-113608152D01*
X114702381Y-113608152D02*
X114892857Y-113608152D01*
X114892857Y-113608152D02*
X114988095Y-113655771D01*
X115559524Y-114274819D02*
X115464286Y-114227200D01*
X115464286Y-114227200D02*
X115416667Y-114179580D01*
X115416667Y-114179580D02*
X115369048Y-114084342D01*
X115369048Y-114084342D02*
X115369048Y-113798628D01*
X115369048Y-113798628D02*
X115416667Y-113703390D01*
X115416667Y-113703390D02*
X115464286Y-113655771D01*
X115464286Y-113655771D02*
X115559524Y-113608152D01*
X115559524Y-113608152D02*
X115702381Y-113608152D01*
X115702381Y-113608152D02*
X115797619Y-113655771D01*
X115797619Y-113655771D02*
X115845238Y-113703390D01*
X115845238Y-113703390D02*
X115892857Y-113798628D01*
X115892857Y-113798628D02*
X115892857Y-114084342D01*
X115892857Y-114084342D02*
X115845238Y-114179580D01*
X115845238Y-114179580D02*
X115797619Y-114227200D01*
X115797619Y-114227200D02*
X115702381Y-114274819D01*
X115702381Y-114274819D02*
X115559524Y-114274819D01*
X116321429Y-113608152D02*
X116321429Y-114608152D01*
X116321429Y-113655771D02*
X116416667Y-113608152D01*
X116416667Y-113608152D02*
X116607143Y-113608152D01*
X116607143Y-113608152D02*
X116702381Y-113655771D01*
X116702381Y-113655771D02*
X116750000Y-113703390D01*
X116750000Y-113703390D02*
X116797619Y-113798628D01*
X116797619Y-113798628D02*
X116797619Y-114084342D01*
X116797619Y-114084342D02*
X116750000Y-114179580D01*
X116750000Y-114179580D02*
X116702381Y-114227200D01*
X116702381Y-114227200D02*
X116607143Y-114274819D01*
X116607143Y-114274819D02*
X116416667Y-114274819D01*
X116416667Y-114274819D02*
X116321429Y-114227200D01*
X116988096Y-114370057D02*
X117750000Y-114370057D01*
X117940477Y-113370057D02*
X117988096Y-113322438D01*
X117988096Y-113322438D02*
X118083334Y-113274819D01*
X118083334Y-113274819D02*
X118321429Y-113274819D01*
X118321429Y-113274819D02*
X118416667Y-113322438D01*
X118416667Y-113322438D02*
X118464286Y-113370057D01*
X118464286Y-113370057D02*
X118511905Y-113465295D01*
X118511905Y-113465295D02*
X118511905Y-113560533D01*
X118511905Y-113560533D02*
X118464286Y-113703390D01*
X118464286Y-113703390D02*
X117892858Y-114274819D01*
X117892858Y-114274819D02*
X118511905Y-114274819D01*
X185042319Y-89738094D02*
X184042319Y-89738094D01*
X184042319Y-89738094D02*
X184042319Y-89499999D01*
X184042319Y-89499999D02*
X184089938Y-89357142D01*
X184089938Y-89357142D02*
X184185176Y-89261904D01*
X184185176Y-89261904D02*
X184280414Y-89214285D01*
X184280414Y-89214285D02*
X184470890Y-89166666D01*
X184470890Y-89166666D02*
X184613747Y-89166666D01*
X184613747Y-89166666D02*
X184804223Y-89214285D01*
X184804223Y-89214285D02*
X184899461Y-89261904D01*
X184899461Y-89261904D02*
X184994700Y-89357142D01*
X184994700Y-89357142D02*
X185042319Y-89499999D01*
X185042319Y-89499999D02*
X185042319Y-89738094D01*
X185042319Y-88214285D02*
X185042319Y-88785713D01*
X185042319Y-88499999D02*
X184042319Y-88499999D01*
X184042319Y-88499999D02*
X184185176Y-88595237D01*
X184185176Y-88595237D02*
X184280414Y-88690475D01*
X184280414Y-88690475D02*
X184328033Y-88785713D01*
D10*
X179263809Y-81953365D02*
X179203333Y-82013842D01*
X179203333Y-82013842D02*
X179021904Y-82074318D01*
X179021904Y-82074318D02*
X178900952Y-82074318D01*
X178900952Y-82074318D02*
X178719523Y-82013842D01*
X178719523Y-82013842D02*
X178598571Y-81892889D01*
X178598571Y-81892889D02*
X178538094Y-81771937D01*
X178538094Y-81771937D02*
X178477618Y-81530032D01*
X178477618Y-81530032D02*
X178477618Y-81348603D01*
X178477618Y-81348603D02*
X178538094Y-81106699D01*
X178538094Y-81106699D02*
X178598571Y-80985746D01*
X178598571Y-80985746D02*
X178719523Y-80864794D01*
X178719523Y-80864794D02*
X178900952Y-80804318D01*
X178900952Y-80804318D02*
X179021904Y-80804318D01*
X179021904Y-80804318D02*
X179203333Y-80864794D01*
X179203333Y-80864794D02*
X179263809Y-80925270D01*
X179808094Y-81227651D02*
X179808094Y-82497651D01*
X179808094Y-81288127D02*
X179929047Y-81227651D01*
X179929047Y-81227651D02*
X180170952Y-81227651D01*
X180170952Y-81227651D02*
X180291904Y-81288127D01*
X180291904Y-81288127D02*
X180352380Y-81348603D01*
X180352380Y-81348603D02*
X180412856Y-81469556D01*
X180412856Y-81469556D02*
X180412856Y-81832413D01*
X180412856Y-81832413D02*
X180352380Y-81953365D01*
X180352380Y-81953365D02*
X180291904Y-82013842D01*
X180291904Y-82013842D02*
X180170952Y-82074318D01*
X180170952Y-82074318D02*
X179929047Y-82074318D01*
X179929047Y-82074318D02*
X179808094Y-82013842D01*
X180896666Y-80925270D02*
X180957142Y-80864794D01*
X180957142Y-80864794D02*
X181078095Y-80804318D01*
X181078095Y-80804318D02*
X181380476Y-80804318D01*
X181380476Y-80804318D02*
X181501428Y-80864794D01*
X181501428Y-80864794D02*
X181561904Y-80925270D01*
X181561904Y-80925270D02*
X181622381Y-81046222D01*
X181622381Y-81046222D02*
X181622381Y-81167175D01*
X181622381Y-81167175D02*
X181561904Y-81348603D01*
X181561904Y-81348603D02*
X180836190Y-82074318D01*
X180836190Y-82074318D02*
X181622381Y-82074318D01*
D11*
X184954819Y-94875594D02*
X183954819Y-94875594D01*
X183954819Y-94875594D02*
X183954819Y-94637499D01*
X183954819Y-94637499D02*
X184002438Y-94494642D01*
X184002438Y-94494642D02*
X184097676Y-94399404D01*
X184097676Y-94399404D02*
X184192914Y-94351785D01*
X184192914Y-94351785D02*
X184383390Y-94304166D01*
X184383390Y-94304166D02*
X184526247Y-94304166D01*
X184526247Y-94304166D02*
X184716723Y-94351785D01*
X184716723Y-94351785D02*
X184811961Y-94399404D01*
X184811961Y-94399404D02*
X184907200Y-94494642D01*
X184907200Y-94494642D02*
X184954819Y-94637499D01*
X184954819Y-94637499D02*
X184954819Y-94875594D01*
X183954819Y-93970832D02*
X183954819Y-93351785D01*
X183954819Y-93351785D02*
X184335771Y-93685118D01*
X184335771Y-93685118D02*
X184335771Y-93542261D01*
X184335771Y-93542261D02*
X184383390Y-93447023D01*
X184383390Y-93447023D02*
X184431009Y-93399404D01*
X184431009Y-93399404D02*
X184526247Y-93351785D01*
X184526247Y-93351785D02*
X184764342Y-93351785D01*
X184764342Y-93351785D02*
X184859580Y-93399404D01*
X184859580Y-93399404D02*
X184907200Y-93447023D01*
X184907200Y-93447023D02*
X184954819Y-93542261D01*
X184954819Y-93542261D02*
X184954819Y-93827975D01*
X184954819Y-93827975D02*
X184907200Y-93923213D01*
X184907200Y-93923213D02*
X184859580Y-93970832D01*
X100719642Y-97039580D02*
X100672023Y-97087200D01*
X100672023Y-97087200D02*
X100529166Y-97134819D01*
X100529166Y-97134819D02*
X100433928Y-97134819D01*
X100433928Y-97134819D02*
X100291071Y-97087200D01*
X100291071Y-97087200D02*
X100195833Y-96991961D01*
X100195833Y-96991961D02*
X100148214Y-96896723D01*
X100148214Y-96896723D02*
X100100595Y-96706247D01*
X100100595Y-96706247D02*
X100100595Y-96563390D01*
X100100595Y-96563390D02*
X100148214Y-96372914D01*
X100148214Y-96372914D02*
X100195833Y-96277676D01*
X100195833Y-96277676D02*
X100291071Y-96182438D01*
X100291071Y-96182438D02*
X100433928Y-96134819D01*
X100433928Y-96134819D02*
X100529166Y-96134819D01*
X100529166Y-96134819D02*
X100672023Y-96182438D01*
X100672023Y-96182438D02*
X100719642Y-96230057D01*
X100910119Y-97230057D02*
X101672023Y-97230057D01*
X102338690Y-97134819D02*
X102338690Y-96134819D01*
X102338690Y-97087200D02*
X102243452Y-97134819D01*
X102243452Y-97134819D02*
X102052976Y-97134819D01*
X102052976Y-97134819D02*
X101957738Y-97087200D01*
X101957738Y-97087200D02*
X101910119Y-97039580D01*
X101910119Y-97039580D02*
X101862500Y-96944342D01*
X101862500Y-96944342D02*
X101862500Y-96658628D01*
X101862500Y-96658628D02*
X101910119Y-96563390D01*
X101910119Y-96563390D02*
X101957738Y-96515771D01*
X101957738Y-96515771D02*
X102052976Y-96468152D01*
X102052976Y-96468152D02*
X102243452Y-96468152D01*
X102243452Y-96468152D02*
X102338690Y-96515771D01*
X103195833Y-97087200D02*
X103100595Y-97134819D01*
X103100595Y-97134819D02*
X102910119Y-97134819D01*
X102910119Y-97134819D02*
X102814881Y-97087200D01*
X102814881Y-97087200D02*
X102767262Y-96991961D01*
X102767262Y-96991961D02*
X102767262Y-96611009D01*
X102767262Y-96611009D02*
X102814881Y-96515771D01*
X102814881Y-96515771D02*
X102910119Y-96468152D01*
X102910119Y-96468152D02*
X103100595Y-96468152D01*
X103100595Y-96468152D02*
X103195833Y-96515771D01*
X103195833Y-96515771D02*
X103243452Y-96611009D01*
X103243452Y-96611009D02*
X103243452Y-96706247D01*
X103243452Y-96706247D02*
X102767262Y-96801485D01*
X104100595Y-97087200D02*
X104005357Y-97134819D01*
X104005357Y-97134819D02*
X103814881Y-97134819D01*
X103814881Y-97134819D02*
X103719643Y-97087200D01*
X103719643Y-97087200D02*
X103672024Y-97039580D01*
X103672024Y-97039580D02*
X103624405Y-96944342D01*
X103624405Y-96944342D02*
X103624405Y-96658628D01*
X103624405Y-96658628D02*
X103672024Y-96563390D01*
X103672024Y-96563390D02*
X103719643Y-96515771D01*
X103719643Y-96515771D02*
X103814881Y-96468152D01*
X103814881Y-96468152D02*
X104005357Y-96468152D01*
X104005357Y-96468152D02*
X104100595Y-96515771D01*
X104672024Y-97134819D02*
X104576786Y-97087200D01*
X104576786Y-97087200D02*
X104529167Y-97039580D01*
X104529167Y-97039580D02*
X104481548Y-96944342D01*
X104481548Y-96944342D02*
X104481548Y-96658628D01*
X104481548Y-96658628D02*
X104529167Y-96563390D01*
X104529167Y-96563390D02*
X104576786Y-96515771D01*
X104576786Y-96515771D02*
X104672024Y-96468152D01*
X104672024Y-96468152D02*
X104814881Y-96468152D01*
X104814881Y-96468152D02*
X104910119Y-96515771D01*
X104910119Y-96515771D02*
X104957738Y-96563390D01*
X104957738Y-96563390D02*
X105005357Y-96658628D01*
X105005357Y-96658628D02*
X105005357Y-96944342D01*
X105005357Y-96944342D02*
X104957738Y-97039580D01*
X104957738Y-97039580D02*
X104910119Y-97087200D01*
X104910119Y-97087200D02*
X104814881Y-97134819D01*
X104814881Y-97134819D02*
X104672024Y-97134819D01*
X105433929Y-96468152D02*
X105433929Y-97468152D01*
X105433929Y-96515771D02*
X105529167Y-96468152D01*
X105529167Y-96468152D02*
X105719643Y-96468152D01*
X105719643Y-96468152D02*
X105814881Y-96515771D01*
X105814881Y-96515771D02*
X105862500Y-96563390D01*
X105862500Y-96563390D02*
X105910119Y-96658628D01*
X105910119Y-96658628D02*
X105910119Y-96944342D01*
X105910119Y-96944342D02*
X105862500Y-97039580D01*
X105862500Y-97039580D02*
X105814881Y-97087200D01*
X105814881Y-97087200D02*
X105719643Y-97134819D01*
X105719643Y-97134819D02*
X105529167Y-97134819D01*
X105529167Y-97134819D02*
X105433929Y-97087200D01*
X106100596Y-97230057D02*
X106862500Y-97230057D01*
X107624405Y-97134819D02*
X107052977Y-97134819D01*
X107338691Y-97134819D02*
X107338691Y-96134819D01*
X107338691Y-96134819D02*
X107243453Y-96277676D01*
X107243453Y-96277676D02*
X107148215Y-96372914D01*
X107148215Y-96372914D02*
X107052977Y-96420533D01*
X191204819Y-89738094D02*
X190204819Y-89738094D01*
X190204819Y-89738094D02*
X190204819Y-89499999D01*
X190204819Y-89499999D02*
X190252438Y-89357142D01*
X190252438Y-89357142D02*
X190347676Y-89261904D01*
X190347676Y-89261904D02*
X190442914Y-89214285D01*
X190442914Y-89214285D02*
X190633390Y-89166666D01*
X190633390Y-89166666D02*
X190776247Y-89166666D01*
X190776247Y-89166666D02*
X190966723Y-89214285D01*
X190966723Y-89214285D02*
X191061961Y-89261904D01*
X191061961Y-89261904D02*
X191157200Y-89357142D01*
X191157200Y-89357142D02*
X191204819Y-89499999D01*
X191204819Y-89499999D02*
X191204819Y-89738094D01*
X190300057Y-88785713D02*
X190252438Y-88738094D01*
X190252438Y-88738094D02*
X190204819Y-88642856D01*
X190204819Y-88642856D02*
X190204819Y-88404761D01*
X190204819Y-88404761D02*
X190252438Y-88309523D01*
X190252438Y-88309523D02*
X190300057Y-88261904D01*
X190300057Y-88261904D02*
X190395295Y-88214285D01*
X190395295Y-88214285D02*
X190490533Y-88214285D01*
X190490533Y-88214285D02*
X190633390Y-88261904D01*
X190633390Y-88261904D02*
X191204819Y-88833332D01*
X191204819Y-88833332D02*
X191204819Y-88214285D01*
D10*
X72113333Y-105824318D02*
X71689999Y-105219556D01*
X71387618Y-105824318D02*
X71387618Y-104554318D01*
X71387618Y-104554318D02*
X71871428Y-104554318D01*
X71871428Y-104554318D02*
X71992380Y-104614794D01*
X71992380Y-104614794D02*
X72052857Y-104675270D01*
X72052857Y-104675270D02*
X72113333Y-104796222D01*
X72113333Y-104796222D02*
X72113333Y-104977651D01*
X72113333Y-104977651D02*
X72052857Y-105098603D01*
X72052857Y-105098603D02*
X71992380Y-105159080D01*
X71992380Y-105159080D02*
X71871428Y-105219556D01*
X71871428Y-105219556D02*
X71387618Y-105219556D01*
X73322857Y-105824318D02*
X72597142Y-105824318D01*
X72959999Y-105824318D02*
X72959999Y-104554318D01*
X72959999Y-104554318D02*
X72839047Y-104735746D01*
X72839047Y-104735746D02*
X72718095Y-104856699D01*
X72718095Y-104856699D02*
X72597142Y-104917175D01*
X55574318Y-69330475D02*
X54969556Y-69753809D01*
X55574318Y-70056190D02*
X54304318Y-70056190D01*
X54304318Y-70056190D02*
X54304318Y-69572380D01*
X54304318Y-69572380D02*
X54364794Y-69451428D01*
X54364794Y-69451428D02*
X54425270Y-69390951D01*
X54425270Y-69390951D02*
X54546222Y-69330475D01*
X54546222Y-69330475D02*
X54727651Y-69330475D01*
X54727651Y-69330475D02*
X54848603Y-69390951D01*
X54848603Y-69390951D02*
X54909080Y-69451428D01*
X54909080Y-69451428D02*
X54969556Y-69572380D01*
X54969556Y-69572380D02*
X54969556Y-70056190D01*
X55574318Y-68120951D02*
X55574318Y-68846666D01*
X55574318Y-68483809D02*
X54304318Y-68483809D01*
X54304318Y-68483809D02*
X54485746Y-68604761D01*
X54485746Y-68604761D02*
X54606699Y-68725713D01*
X54606699Y-68725713D02*
X54667175Y-68846666D01*
X55513842Y-67637142D02*
X55574318Y-67516189D01*
X55574318Y-67516189D02*
X55574318Y-67274285D01*
X55574318Y-67274285D02*
X55513842Y-67153332D01*
X55513842Y-67153332D02*
X55392889Y-67092856D01*
X55392889Y-67092856D02*
X55332413Y-67092856D01*
X55332413Y-67092856D02*
X55211461Y-67153332D01*
X55211461Y-67153332D02*
X55150984Y-67274285D01*
X55150984Y-67274285D02*
X55150984Y-67455713D01*
X55150984Y-67455713D02*
X55090508Y-67576666D01*
X55090508Y-67576666D02*
X54969556Y-67637142D01*
X54969556Y-67637142D02*
X54909080Y-67637142D01*
X54909080Y-67637142D02*
X54788127Y-67576666D01*
X54788127Y-67576666D02*
X54727651Y-67455713D01*
X54727651Y-67455713D02*
X54727651Y-67274285D01*
X54727651Y-67274285D02*
X54788127Y-67153332D01*
X55574318Y-65883332D02*
X55574318Y-66609047D01*
X55574318Y-66246190D02*
X54304318Y-66246190D01*
X54304318Y-66246190D02*
X54485746Y-66367142D01*
X54485746Y-66367142D02*
X54606699Y-66488094D01*
X54606699Y-66488094D02*
X54667175Y-66609047D01*
X67713809Y-68453365D02*
X67653333Y-68513842D01*
X67653333Y-68513842D02*
X67471904Y-68574318D01*
X67471904Y-68574318D02*
X67350952Y-68574318D01*
X67350952Y-68574318D02*
X67169523Y-68513842D01*
X67169523Y-68513842D02*
X67048571Y-68392889D01*
X67048571Y-68392889D02*
X66988094Y-68271937D01*
X66988094Y-68271937D02*
X66927618Y-68030032D01*
X66927618Y-68030032D02*
X66927618Y-67848603D01*
X66927618Y-67848603D02*
X66988094Y-67606699D01*
X66988094Y-67606699D02*
X67048571Y-67485746D01*
X67048571Y-67485746D02*
X67169523Y-67364794D01*
X67169523Y-67364794D02*
X67350952Y-67304318D01*
X67350952Y-67304318D02*
X67471904Y-67304318D01*
X67471904Y-67304318D02*
X67653333Y-67364794D01*
X67653333Y-67364794D02*
X67713809Y-67425270D01*
X68258094Y-67727651D02*
X68258094Y-68997651D01*
X68258094Y-67788127D02*
X68379047Y-67727651D01*
X68379047Y-67727651D02*
X68620952Y-67727651D01*
X68620952Y-67727651D02*
X68741904Y-67788127D01*
X68741904Y-67788127D02*
X68802380Y-67848603D01*
X68802380Y-67848603D02*
X68862856Y-67969556D01*
X68862856Y-67969556D02*
X68862856Y-68332413D01*
X68862856Y-68332413D02*
X68802380Y-68453365D01*
X68802380Y-68453365D02*
X68741904Y-68513842D01*
X68741904Y-68513842D02*
X68620952Y-68574318D01*
X68620952Y-68574318D02*
X68379047Y-68574318D01*
X68379047Y-68574318D02*
X68258094Y-68513842D01*
X70072381Y-68574318D02*
X69346666Y-68574318D01*
X69709523Y-68574318D02*
X69709523Y-67304318D01*
X69709523Y-67304318D02*
X69588571Y-67485746D01*
X69588571Y-67485746D02*
X69467619Y-67606699D01*
X69467619Y-67606699D02*
X69346666Y-67667175D01*
X77544285Y-106074318D02*
X77120951Y-105469556D01*
X76818570Y-106074318D02*
X76818570Y-104804318D01*
X76818570Y-104804318D02*
X77302380Y-104804318D01*
X77302380Y-104804318D02*
X77423332Y-104864794D01*
X77423332Y-104864794D02*
X77483809Y-104925270D01*
X77483809Y-104925270D02*
X77544285Y-105046222D01*
X77544285Y-105046222D02*
X77544285Y-105227651D01*
X77544285Y-105227651D02*
X77483809Y-105348603D01*
X77483809Y-105348603D02*
X77423332Y-105409080D01*
X77423332Y-105409080D02*
X77302380Y-105469556D01*
X77302380Y-105469556D02*
X76818570Y-105469556D01*
X78088570Y-105227651D02*
X78088570Y-106497651D01*
X78088570Y-105288127D02*
X78209523Y-105227651D01*
X78209523Y-105227651D02*
X78451428Y-105227651D01*
X78451428Y-105227651D02*
X78572380Y-105288127D01*
X78572380Y-105288127D02*
X78632856Y-105348603D01*
X78632856Y-105348603D02*
X78693332Y-105469556D01*
X78693332Y-105469556D02*
X78693332Y-105832413D01*
X78693332Y-105832413D02*
X78632856Y-105953365D01*
X78632856Y-105953365D02*
X78572380Y-106013842D01*
X78572380Y-106013842D02*
X78451428Y-106074318D01*
X78451428Y-106074318D02*
X78209523Y-106074318D01*
X78209523Y-106074318D02*
X78088570Y-106013842D01*
X79419047Y-106074318D02*
X79298095Y-106013842D01*
X79298095Y-106013842D02*
X79237618Y-105953365D01*
X79237618Y-105953365D02*
X79177142Y-105832413D01*
X79177142Y-105832413D02*
X79177142Y-105469556D01*
X79177142Y-105469556D02*
X79237618Y-105348603D01*
X79237618Y-105348603D02*
X79298095Y-105288127D01*
X79298095Y-105288127D02*
X79419047Y-105227651D01*
X79419047Y-105227651D02*
X79600476Y-105227651D01*
X79600476Y-105227651D02*
X79721428Y-105288127D01*
X79721428Y-105288127D02*
X79781904Y-105348603D01*
X79781904Y-105348603D02*
X79842380Y-105469556D01*
X79842380Y-105469556D02*
X79842380Y-105832413D01*
X79842380Y-105832413D02*
X79781904Y-105953365D01*
X79781904Y-105953365D02*
X79721428Y-106013842D01*
X79721428Y-106013842D02*
X79600476Y-106074318D01*
X79600476Y-106074318D02*
X79419047Y-106074318D01*
X80265714Y-105227651D02*
X80568095Y-106074318D01*
X80568095Y-106074318D02*
X80870476Y-105227651D01*
X81354285Y-105590508D02*
X82321905Y-105590508D01*
X83591905Y-106074318D02*
X82866190Y-106074318D01*
X83229047Y-106074318D02*
X83229047Y-104804318D01*
X83229047Y-104804318D02*
X83108095Y-104985746D01*
X83108095Y-104985746D02*
X82987143Y-105106699D01*
X82987143Y-105106699D02*
X82866190Y-105167175D01*
X118979047Y-105445270D02*
X118858095Y-105384794D01*
X118858095Y-105384794D02*
X118737142Y-105263842D01*
X118737142Y-105263842D02*
X118555714Y-105082413D01*
X118555714Y-105082413D02*
X118434761Y-105021937D01*
X118434761Y-105021937D02*
X118313809Y-105021937D01*
X118374285Y-105324318D02*
X118253333Y-105263842D01*
X118253333Y-105263842D02*
X118132380Y-105142889D01*
X118132380Y-105142889D02*
X118071904Y-104900984D01*
X118071904Y-104900984D02*
X118071904Y-104477651D01*
X118071904Y-104477651D02*
X118132380Y-104235746D01*
X118132380Y-104235746D02*
X118253333Y-104114794D01*
X118253333Y-104114794D02*
X118374285Y-104054318D01*
X118374285Y-104054318D02*
X118616190Y-104054318D01*
X118616190Y-104054318D02*
X118737142Y-104114794D01*
X118737142Y-104114794D02*
X118858095Y-104235746D01*
X118858095Y-104235746D02*
X118918571Y-104477651D01*
X118918571Y-104477651D02*
X118918571Y-104900984D01*
X118918571Y-104900984D02*
X118858095Y-105142889D01*
X118858095Y-105142889D02*
X118737142Y-105263842D01*
X118737142Y-105263842D02*
X118616190Y-105324318D01*
X118616190Y-105324318D02*
X118374285Y-105324318D01*
X120128095Y-105324318D02*
X119402380Y-105324318D01*
X119765237Y-105324318D02*
X119765237Y-104054318D01*
X119765237Y-104054318D02*
X119644285Y-104235746D01*
X119644285Y-104235746D02*
X119523333Y-104356699D01*
X119523333Y-104356699D02*
X119402380Y-104417175D01*
D12*
%TO.C,Rp2*%
X178375000Y-85250000D02*
G75*
G02*
X178275000Y-85250000I-50000J0D01*
G01*
X178275000Y-85250000D02*
G75*
G02*
X178375000Y-85250000I50000J0D01*
G01*
%TO.C,Rload1*%
X236050000Y-91750000D02*
G75*
G02*
X235950000Y-91750000I-50000J0D01*
G01*
X235950000Y-91750000D02*
G75*
G02*
X236050000Y-91750000I50000J0D01*
G01*
%TO.C,Cd1*%
X60940000Y-105000000D02*
X63940000Y-105000000D01*
%TO.C,Rp1*%
X66875000Y-75000000D02*
G75*
G02*
X66775000Y-75000000I-50000J0D01*
G01*
X66775000Y-75000000D02*
G75*
G02*
X66875000Y-75000000I50000J0D01*
G01*
D13*
%TO.C,D4*%
X192300000Y-95072500D02*
G75*
G02*
X192200000Y-95072500I-50000J0D01*
G01*
X192200000Y-95072500D02*
G75*
G02*
X192300000Y-95072500I50000J0D01*
G01*
D12*
%TO.C,Rpow-MOS1*%
X123900000Y-98750000D02*
G75*
G02*
X123800000Y-98750000I-50000J0D01*
G01*
X123800000Y-98750000D02*
G75*
G02*
X123900000Y-98750000I50000J0D01*
G01*
%TO.C,L2*%
X145850000Y-15810000D02*
X199150000Y-15810000D01*
X145850000Y-69150000D02*
X145850000Y-15810000D01*
X199150000Y-15810000D02*
X199150000Y-69150000D01*
X199150000Y-69150000D02*
X145850000Y-69150000D01*
D14*
%TO.C,C_out1*%
X224990000Y-92008767D02*
X224990000Y-91716233D01*
X226010000Y-92008767D02*
X226010000Y-91716233D01*
D12*
%TO.C,Rpow_MOS1*%
X113200000Y-110750000D02*
G75*
G02*
X113100000Y-110750000I-50000J0D01*
G01*
X113100000Y-110750000D02*
G75*
G02*
X113200000Y-110750000I50000J0D01*
G01*
%TO.C,Rgate1*%
X102800000Y-110000000D02*
G75*
G02*
X102700000Y-110000000I-50000J0D01*
G01*
X102700000Y-110000000D02*
G75*
G02*
X102800000Y-110000000I50000J0D01*
G01*
D14*
%TO.C,U1*%
X210050000Y-76400000D02*
X210050000Y-82820000D01*
X210050000Y-82820000D02*
X210320000Y-82820000D01*
X216950000Y-76400000D02*
X216950000Y-82820000D01*
X216950000Y-82820000D02*
X216680000Y-82820000D01*
X210360000Y-84550000D02*
X209890000Y-84890000D01*
X209890000Y-84210000D01*
X210360000Y-84550000D01*
G36*
X210360000Y-84550000D02*
G01*
X209890000Y-84890000D01*
X209890000Y-84210000D01*
X210360000Y-84550000D01*
G37*
D12*
%TO.C,J1*%
X51250000Y-55000000D02*
X51250000Y-62500000D01*
X51250000Y-62500000D02*
X58750000Y-62500000D01*
X58750000Y-52500000D02*
X55450000Y-52500000D01*
X58750000Y-62500000D02*
X58750000Y-52500000D01*
%TO.C,L1*%
X82850000Y-17310000D02*
X136150000Y-17310000D01*
X82850000Y-70650000D02*
X82850000Y-17310000D01*
X136150000Y-17310000D02*
X136150000Y-70650000D01*
X136150000Y-70650000D02*
X82850000Y-70650000D01*
%TO.C,Rpow1*%
X105400000Y-99000000D02*
G75*
G02*
X105300000Y-99000000I-50000J0D01*
G01*
X105300000Y-99000000D02*
G75*
G02*
X105400000Y-99000000I50000J0D01*
G01*
D14*
%TO.C,C_rect1*%
X203640000Y-91837836D02*
X203640000Y-91622164D01*
X204360000Y-91837836D02*
X204360000Y-91622164D01*
D15*
%TO.C,IC1*%
X93500000Y-102480000D02*
X97500000Y-102480000D01*
X93500000Y-107520000D02*
X97500000Y-107520000D01*
D12*
X91155000Y-102505000D02*
G75*
G02*
X90955000Y-102505000I-100000J0D01*
G01*
X90955000Y-102505000D02*
G75*
G02*
X91155000Y-102505000I100000J0D01*
G01*
D14*
%TO.C,C_decop_2*%
X114603733Y-114740000D02*
X114896267Y-114740000D01*
X114603733Y-115760000D02*
X114896267Y-115760000D01*
D13*
%TO.C,D1*%
X185637500Y-89935000D02*
G75*
G02*
X185537500Y-89935000I-50000J0D01*
G01*
X185537500Y-89935000D02*
G75*
G02*
X185637500Y-89935000I50000J0D01*
G01*
%TO.C,D3*%
X185550000Y-93202500D02*
G75*
G02*
X185450000Y-93202500I-50000J0D01*
G01*
X185450000Y-93202500D02*
G75*
G02*
X185550000Y-93202500I50000J0D01*
G01*
D14*
%TO.C,C_decop_1*%
X104008767Y-94740000D02*
X103716233Y-94740000D01*
X104008767Y-95760000D02*
X103716233Y-95760000D01*
D13*
%TO.C,D2*%
X192137500Y-88065000D02*
G75*
G02*
X192037500Y-88065000I-50000J0D01*
G01*
X192037500Y-88065000D02*
G75*
G02*
X192137500Y-88065000I50000J0D01*
G01*
D12*
%TO.C,R1*%
X70700000Y-105250000D02*
G75*
G02*
X70600000Y-105250000I-50000J0D01*
G01*
X70600000Y-105250000D02*
G75*
G02*
X70700000Y-105250000I50000J0D01*
G01*
%TO.C,R1s1*%
X55050000Y-66325000D02*
G75*
G02*
X54950000Y-66325000I-50000J0D01*
G01*
X54950000Y-66325000D02*
G75*
G02*
X55050000Y-66325000I50000J0D01*
G01*
%TO.C,Cp1*%
X68500000Y-66450000D02*
X68500000Y-69550000D01*
%TO.C,Rpov-1*%
X81900000Y-105500000D02*
G75*
G02*
X81800000Y-105500000I-50000J0D01*
G01*
X81800000Y-105500000D02*
G75*
G02*
X81900000Y-105500000I50000J0D01*
G01*
D13*
%TO.C,Q1*%
X118450000Y-106350000D02*
X118450000Y-106350000D01*
X118450000Y-106450000D02*
X118450000Y-106450000D01*
X118450000Y-106350000D02*
G75*
G02*
X118450000Y-106450000I0J-50000D01*
G01*
X118450000Y-106450000D02*
G75*
G02*
X118450000Y-106350000I0J50000D01*
G01*
%TD*%
M02*
